<svg width="229" height="882" viewBox="0 0 229 441" fill="none" xmlns="http://www.w3.org/2000/svg">
<path d="M16.269 413.923C17.3359 412.968 17.4278 411.32 16.4736 410.254C15.5193 409.187 13.8713 409.095 12.8044 410.049C11.7374 411.003 11.662 412.637 12.6162 413.703C13.5705 414.77 15.2185 414.862 16.269 413.923Z" fill="#FFFFFF"/>
<path d="M38.0015 394.484C39.0684 393.53 39.1439 391.897 38.1896 390.83C37.2354 389.763 35.5873 389.671 34.5368 390.611C33.4863 391.55 33.3781 393.213 34.3323 394.28C35.2865 395.347 36.9346 395.439 38.0015 394.484Z" fill="#FFFFFF"/>
<path d="M59.7503 375.033C60.8173 374.079 60.9091 372.431 59.9549 371.364C59.0006 370.297 57.3526 370.205 56.2857 371.159C55.2188 372.113 55.1433 373.747 56.0976 374.814C57.0518 375.88 58.6998 375.972 59.7503 375.033Z" fill="#FFFFFF"/>
<path d="M81.4966 355.613C82.5663 354.656 82.6579 353.014 81.7012 351.944C80.7444 350.874 79.1017 350.783 78.032 351.739C76.9623 352.696 76.8707 354.339 77.8274 355.409C78.7842 356.478 80.4269 356.57 81.4966 355.613Z" fill="#FFFFFF"/>
<path d="M103.231 336.142C104.298 335.188 104.374 333.555 103.419 332.488C102.465 331.421 100.817 331.329 99.7667 332.269C98.7162 333.208 98.6079 334.871 99.5622 335.938C100.516 337.005 102.164 337.097 103.231 336.142Z" fill="#FFFFFF"/>
<path d="M124.963 316.707C126.03 315.752 126.122 314.104 125.168 313.037C124.214 311.971 122.566 311.879 121.499 312.833C120.432 313.787 120.356 315.42 121.311 316.487C122.265 317.554 123.913 317.646 124.963 316.707Z" fill="#FFFFFF"/>
<path d="M146.712 297.255C147.779 296.301 147.855 294.668 146.9 293.601C145.946 292.534 144.298 292.442 143.248 293.381C142.197 294.321 142.089 295.984 143.043 297.051C143.997 298.118 145.645 298.209 146.712 297.255Z" fill="#FFFFFF"/>
<path d="M168.445 277.817C169.511 276.863 169.603 275.215 168.649 274.148C167.695 273.081 166.047 272.989 164.98 273.943C163.913 274.898 163.838 276.531 164.792 277.598C165.746 278.665 167.394 278.757 168.445 277.817Z" fill="#FFFFFF"/>
<path d="M190.208 258.382C191.278 257.425 191.369 255.782 190.413 254.712C189.456 253.643 187.813 253.551 186.744 254.508C185.674 255.465 185.582 257.107 186.539 258.177C187.496 259.247 189.138 259.338 190.208 258.382Z" fill="#FFFFFF"/>
<path d="M211.926 238.926C212.993 237.972 213.068 236.339 212.114 235.272C211.16 234.205 209.512 234.113 208.461 235.053C207.411 235.992 207.302 237.655 208.257 238.722C209.211 239.789 210.859 239.881 211.926 238.926Z" fill="#FFFFFF"/>
<path d="M233.674 219.477C234.741 218.523 234.833 216.875 233.879 215.808C232.924 214.741 231.276 214.649 230.209 215.603C229.142 216.557 229.067 218.191 230.021 219.258C230.976 220.325 232.624 220.416 233.674 219.477Z" fill="#FFFFFF"/>
<path d="M24.8386 445.405C25.9055 444.451 25.9974 442.803 25.0431 441.736C24.0889 440.669 22.4409 440.577 21.3739 441.531C20.307 442.486 20.2316 444.119 21.1858 445.186C22.1401 446.253 23.7881 446.345 24.8386 445.405Z" fill="#FFFFFF"/>
<path d="M46.5874 425.954C47.6571 424.997 47.7487 423.354 46.792 422.284C45.8352 421.215 44.1925 421.123 43.1228 422.08C42.0531 423.037 41.9615 424.679 42.9182 425.749C43.875 426.819 45.5177 426.91 46.5874 425.954Z" fill="#FFFFFF"/>
<path d="M68.3363 406.501C69.4032 405.546 69.4787 403.913 68.5245 402.846C67.5702 401.779 65.9222 401.687 64.8717 402.627C63.8212 403.566 63.7129 405.229 64.6671 406.296C65.6214 407.363 67.2694 407.455 68.3363 406.501Z" fill="#FFFFFF"/>
<path d="M90.0684 387.062C91.1354 386.108 91.2272 384.46 90.273 383.393C89.3187 382.326 87.6707 382.234 86.6038 383.189C85.5369 384.143 85.4614 385.776 86.4157 386.843C87.3699 387.91 89.0179 388.002 90.0684 387.062Z" fill="#FFFFFF"/>
<path d="M111.801 367.626C112.867 366.672 112.943 365.038 111.989 363.971C111.034 362.904 109.386 362.812 108.336 363.752C107.285 364.692 107.177 366.354 108.131 367.421C109.086 368.488 110.734 368.58 111.801 367.626Z" fill="#FFFFFF"/>
<path d="M133.55 348.173C134.617 347.219 134.709 345.571 133.754 344.504C132.8 343.437 131.152 343.345 130.085 344.299C129.018 345.253 128.943 346.887 129.897 347.954C130.851 349.021 132.499 349.113 133.55 348.173Z" fill="#FFFFFF"/>
<path d="M155.282 328.738C156.351 327.782 156.443 326.139 155.486 325.069C154.529 323.999 152.887 323.908 151.817 324.865C150.747 325.821 150.656 327.464 151.612 328.534C152.569 329.603 154.212 329.695 155.282 328.738Z" fill="#FFFFFF"/>
<path d="M177.031 309.285C178.097 308.331 178.173 306.698 177.219 305.631C176.264 304.564 174.616 304.472 173.566 305.411C172.515 306.351 172.407 308.014 173.361 309.081C174.316 310.148 175.964 310.239 177.031 309.285Z" fill="#FFFFFF"/>
<path d="M198.763 289.846C199.83 288.892 199.922 287.244 198.967 286.177C198.013 285.11 196.365 285.018 195.298 285.973C194.231 286.927 194.156 288.56 195.11 289.627C196.064 290.694 197.712 290.786 198.763 289.846Z" fill="#FFFFFF"/>
<path d="M220.512 270.396C221.579 269.442 221.654 267.808 220.7 266.741C219.746 265.674 218.098 265.583 217.047 266.522C215.997 267.462 215.888 269.124 216.843 270.191C217.797 271.258 219.445 271.35 220.512 270.396Z" fill="#FFFFFF"/>
<path d="M55.1587 457.405C56.2256 456.451 56.3174 454.803 55.3632 453.736C54.409 452.669 52.7609 452.577 51.694 453.532C50.6271 454.486 50.5516 456.119 51.5059 457.186C52.4601 458.253 54.1082 458.345 55.1587 457.405Z" fill="#FFFFFF"/>
<path d="M76.8911 437.966C77.9581 437.012 78.0335 435.379 77.0793 434.312C76.125 433.245 74.477 433.153 73.4265 434.093C72.376 435.032 72.2677 436.695 73.2219 437.762C74.1762 438.829 75.8242 438.921 76.8911 437.966Z" fill="#FFFFFF"/>
<path d="M98.6394 418.515C99.7063 417.56 99.7982 415.912 98.8439 414.846C97.8897 413.779 96.2416 413.687 95.1747 414.641C94.1078 415.595 94.0323 417.229 94.9866 418.296C95.9408 419.362 97.5889 419.454 98.6394 418.515Z" fill="#FFFFFF"/>
<path d="M120.372 399.076C121.439 398.122 121.531 396.474 120.577 395.407C119.622 394.34 117.974 394.248 116.907 395.203C115.841 396.157 115.749 397.805 116.703 398.872C117.657 399.939 119.305 400.031 120.372 399.076Z" fill="#FFFFFF"/>
<path d="M142.121 379.626C143.188 378.672 143.263 377.038 142.309 375.971C141.355 374.904 139.707 374.812 138.656 375.752C137.606 376.692 137.498 378.354 138.452 379.421C139.406 380.488 141.054 380.58 142.121 379.626Z" fill="#FFFFFF"/>
<path d="M163.853 360.187C164.92 359.233 165.012 357.585 164.058 356.518C163.104 355.451 161.456 355.359 160.389 356.313C159.322 357.267 159.246 358.901 160.201 359.968C161.155 361.035 162.803 361.126 163.853 360.187Z" fill="#FFFFFF"/>
<path d="M185.602 340.735C186.669 339.78 186.745 338.147 185.79 337.08C184.836 336.013 183.188 335.921 182.138 336.861C181.087 337.801 180.979 339.463 181.933 340.53C182.887 341.597 184.535 341.689 185.602 340.735Z" fill="#FFFFFF"/>
<path d="M207.334 321.301C208.401 320.346 208.493 318.698 207.539 317.631C206.584 316.565 204.936 316.473 203.869 317.427C202.803 318.381 202.727 320.014 203.681 321.081C204.636 322.148 206.284 322.24 207.334 321.301Z" fill="#FFFFFF"/>
<path d="M229.083 301.846C230.15 300.892 230.242 299.244 229.288 298.177C228.333 297.11 226.685 297.019 225.618 297.973C224.551 298.927 224.46 300.575 225.414 301.642C226.368 302.709 228.016 302.801 229.083 301.846Z" fill="#FFFFFF"/>
<path d="M63.7136 488.87C64.7805 487.916 64.8724 486.268 63.9181 485.201C62.9639 484.134 61.3305 484.059 60.2636 485.013C59.1967 485.967 59.1212 487.6 60.0608 488.651C61.0003 489.701 62.6631 489.81 63.7136 488.87Z" fill="#FFFFFF"/>
<path d="M85.4622 469.417C86.5291 468.462 86.6209 466.814 85.6667 465.747C84.7125 464.68 83.0791 464.605 82.0122 465.559C80.9453 466.513 80.8534 468.161 81.793 469.212C82.7325 470.262 84.3952 470.371 85.4622 469.417Z" fill="#FFFFFF"/>
<path d="M107.211 449.966C108.277 449.012 108.353 447.378 107.399 446.312C106.444 445.245 104.811 445.169 103.761 446.109C102.71 447.048 102.602 448.711 103.541 449.762C104.481 450.812 106.144 450.92 107.211 449.966Z" fill="#FFFFFF"/>
<path d="M128.943 430.528C130.01 429.574 130.102 427.926 129.148 426.859C128.193 425.792 126.56 425.716 125.493 426.671C124.426 427.625 124.351 429.258 125.29 430.309C126.23 431.359 127.893 431.467 128.943 430.528Z" fill="#FFFFFF"/>
<path d="M150.676 411.091C151.743 410.136 151.818 408.503 150.864 407.436C149.91 406.369 148.276 406.294 147.226 407.233C146.175 408.173 146.067 409.836 147.007 410.886C147.946 411.937 149.609 412.045 150.676 411.091Z" fill="#FFFFFF"/>
<path d="M172.424 391.638C173.491 390.684 173.583 389.036 172.629 387.969C171.675 386.902 170.041 386.826 168.975 387.781C167.908 388.735 167.832 390.368 168.772 391.419C169.711 392.469 171.374 392.578 172.424 391.638Z" fill="#FFFFFF"/>
<path d="M194.157 372.201C195.224 371.246 195.315 369.598 194.361 368.531C193.407 367.465 191.774 367.389 190.707 368.343C189.64 369.298 189.548 370.946 190.487 371.996C191.427 373.047 193.09 373.155 194.157 372.201Z" fill="#FFFFFF"/>
<path d="M215.905 352.751C216.972 351.796 217.048 350.163 216.093 349.096C215.139 348.029 213.506 347.954 212.455 348.893C211.405 349.833 211.296 351.496 212.236 352.546C213.176 353.597 214.838 353.705 215.905 352.751Z" fill="#FFFFFF"/>
<path d="M94.048 500.884C95.115 499.93 95.2068 498.282 94.2673 497.231C93.3277 496.181 91.665 496.072 90.5981 497.026C89.5311 497.981 89.4557 499.614 90.4099 500.681C91.3642 501.748 92.9975 501.823 94.048 500.884Z" fill="#FFFFFF"/>
<path d="M115.78 481.449C116.847 480.495 116.923 478.862 115.983 477.811C115.043 476.761 113.381 476.652 112.33 477.592C111.28 478.531 111.171 480.194 112.126 481.261C113.08 482.328 114.713 482.403 115.78 481.449Z" fill="#FFFFFF"/>
<path d="M137.529 461.994C138.596 461.04 138.688 459.392 137.749 458.341C136.809 457.291 135.146 457.182 134.079 458.137C133.012 459.091 132.937 460.724 133.891 461.791C134.846 462.858 136.479 462.933 137.529 461.994Z" fill="#FFFFFF"/>
<path d="M159.261 442.557C160.328 441.603 160.42 439.955 159.48 438.905C158.541 437.854 156.878 437.746 155.811 438.7C154.744 439.654 154.652 441.302 155.607 442.369C156.561 443.436 158.194 443.512 159.261 442.557Z" fill="#FFFFFF"/>
<path d="M181.01 423.106C182.077 422.152 182.153 420.519 181.213 419.468C180.273 418.418 178.611 418.31 177.56 419.249C176.51 420.189 176.401 421.851 177.356 422.918C178.31 423.985 179.943 424.061 181.01 423.106Z" fill="#FFFFFF"/>
<path d="M202.743 403.668C203.81 402.714 203.901 401.066 202.962 400.016C202.022 398.965 200.36 398.857 199.293 399.811C198.226 400.765 198.15 402.399 199.105 403.466C200.059 404.533 201.692 404.608 202.743 403.668Z" fill="#FFFFFF"/>
<path d="M224.491 384.217C225.558 383.262 225.634 381.629 224.694 380.578C223.755 379.528 222.092 379.42 221.041 380.359C219.991 381.299 219.883 382.962 220.837 384.028C221.791 385.095 223.425 385.171 224.491 384.217Z" fill="#FFFFFF"/>
<path d="M102.603 532.35C103.67 531.396 103.762 529.748 102.807 528.681C101.853 527.614 100.205 527.522 99.1381 528.476C98.0712 529.431 97.9957 531.064 98.95 532.131C99.9042 533.198 101.552 533.29 102.603 532.35Z" fill="#FFFFFF"/>
<path d="M124.365 512.914C125.435 511.958 125.527 510.315 124.57 509.245C123.613 508.175 121.97 508.084 120.901 509.041C119.831 509.997 119.739 511.64 120.696 512.71C121.653 513.78 123.296 513.871 124.365 512.914Z" fill="#FFFFFF"/>
<path d="M146.1 493.447C147.167 492.493 147.242 490.859 146.288 489.793C145.334 488.726 143.686 488.634 142.635 489.573C141.585 490.513 141.477 492.176 142.431 493.243C143.385 494.309 145.033 494.401 146.1 493.447Z" fill="#FFFFFF"/>
<path d="M167.833 474.009C168.9 473.055 168.991 471.407 168.037 470.34C167.083 469.273 165.435 469.181 164.368 470.135C163.301 471.09 163.226 472.723 164.18 473.79C165.134 474.857 166.782 474.949 167.833 474.009Z" fill="#FFFFFF"/>
<path d="M189.565 454.573C190.632 453.619 190.707 451.986 189.753 450.919C188.799 449.852 187.151 449.76 186.1 450.7C185.05 451.639 184.941 453.302 185.896 454.369C186.85 455.436 188.498 455.528 189.565 454.573Z" fill="#FFFFFF"/>
<path d="M211.314 435.12C212.38 434.165 212.472 432.517 211.518 431.451C210.564 430.384 208.916 430.292 207.849 431.246C206.782 432.2 206.707 433.834 207.661 434.9C208.615 435.967 210.263 436.059 211.314 435.12Z" fill="#FFFFFF"/>
<path d="M233.06 415.698C234.13 414.742 234.221 413.099 233.264 412.029C232.308 410.959 230.665 410.868 229.595 411.825C228.525 412.781 228.434 414.424 229.391 415.494C230.347 416.563 231.99 416.655 233.06 415.698Z" fill="#FFFFFF"/>
<path d="M132.937 544.367C134.004 543.412 134.096 541.764 133.142 540.697C132.187 539.63 130.539 539.539 129.472 540.493C128.405 541.447 128.33 543.08 129.284 544.147C130.238 545.214 131.886 545.306 132.937 544.367Z" fill="#FFFFFF"/>
<path d="M154.669 524.928C155.736 523.974 155.812 522.341 154.857 521.274C153.903 520.207 152.255 520.115 151.205 521.055C150.154 521.994 150.046 523.657 151 524.724C151.954 525.791 153.602 525.883 154.669 524.928Z" fill="#FFFFFF"/>
<path d="M176.418 505.477C177.485 504.522 177.577 502.874 176.623 501.807C175.669 500.741 174.021 500.649 172.954 501.603C171.887 502.557 171.811 504.191 172.766 505.257C173.72 506.324 175.368 506.416 176.418 505.477Z" fill="#FFFFFF"/>
<path d="M198.15 486.039C199.22 485.082 199.312 483.439 198.355 482.37C197.398 481.3 195.755 481.208 194.686 482.165C193.616 483.122 193.524 484.765 194.481 485.834C195.438 486.904 197.081 486.996 198.15 486.039Z" fill="#FFFFFF"/>
<path d="M219.899 466.586C220.966 465.632 221.042 463.998 220.087 462.931C219.133 461.864 217.485 461.772 216.435 462.712C215.384 463.652 215.276 465.314 216.23 466.381C217.184 467.448 218.832 467.54 219.899 466.586Z" fill="#FFFFFF"/>
<path d="M141.491 575.832C142.558 574.878 142.65 573.23 141.696 572.163C140.741 571.096 139.093 571.004 138.026 571.958C136.959 572.913 136.884 574.546 137.838 575.613C138.793 576.68 140.441 576.772 141.491 575.832Z" fill="#FFFFFF"/>
<path d="M163.24 556.379C164.307 555.425 164.399 553.777 163.444 552.71C162.49 551.643 160.842 551.551 159.775 552.505C158.708 553.459 158.616 555.107 159.571 556.174C160.525 557.241 162.173 557.333 163.24 556.379Z" fill="#FFFFFF"/>
<path d="M184.989 536.928C186.056 535.973 186.131 534.34 185.177 533.273C184.223 532.206 182.575 532.114 181.524 533.054C180.474 533.993 180.365 535.656 181.32 536.723C182.274 537.79 183.922 537.882 184.989 536.928Z" fill="#FFFFFF"/>
<path d="M206.721 517.489C207.788 516.535 207.88 514.887 206.926 513.82C205.972 512.753 204.324 512.661 203.257 513.616C202.19 514.57 202.114 516.203 203.069 517.27C204.023 518.337 205.671 518.429 206.721 517.489Z" fill="#FFFFFF"/>
<path d="M228.454 498.053C229.521 497.099 229.596 495.465 228.642 494.398C227.688 493.331 226.04 493.239 224.989 494.179C223.939 495.119 223.83 496.781 224.785 497.848C225.739 498.915 227.387 499.007 228.454 498.053Z" fill="#FFFFFF"/>
<path d="M171.826 587.847C172.893 586.893 172.985 585.245 172.031 584.178C171.077 583.111 169.443 583.036 168.376 583.99C167.309 584.944 167.234 586.577 168.173 587.628C169.113 588.678 170.776 588.787 171.826 587.847Z" fill="#FFFFFF"/>
<path d="M193.559 568.41C194.626 567.456 194.701 565.822 193.747 564.755C192.793 563.688 191.159 563.613 190.109 564.553C189.058 565.492 188.95 567.155 189.89 568.205C190.829 569.256 192.492 569.364 193.559 568.41Z" fill="#FFFFFF"/>
<path d="M215.307 548.957C216.374 548.003 216.466 546.355 215.512 545.288C214.557 544.221 212.924 544.146 211.857 545.1C210.79 546.054 210.715 547.688 211.654 548.738C212.594 549.789 214.257 549.897 215.307 548.957Z" fill="#FFFFFF"/>
<path d="M180.381 619.312C181.448 618.357 181.54 616.709 180.6 615.659C179.661 614.608 177.998 614.5 176.931 615.454C175.864 616.408 175.789 618.042 176.743 619.109C177.697 620.176 179.33 620.251 180.381 619.312Z" fill="#FFFFFF"/>
<path d="M202.13 599.86C203.197 598.906 203.289 597.258 202.349 596.207C201.41 595.157 199.747 595.049 198.68 596.003C197.613 596.957 197.521 598.605 198.475 599.672C199.43 600.739 201.063 600.814 202.13 599.86Z" fill="#FFFFFF"/>
<path d="M223.878 580.41C224.945 579.455 225.02 577.822 224.081 576.772C223.141 575.721 221.479 575.613 220.428 576.552C219.378 577.492 219.269 579.155 220.224 580.222C221.178 581.288 222.811 581.364 223.878 580.41Z" fill="#FFFFFF"/>
<path d="M210.716 631.328C211.783 630.374 211.874 628.726 210.92 627.659C209.966 626.592 208.318 626.5 207.251 627.454C206.184 628.409 206.109 630.042 207.063 631.109C208.017 632.176 209.665 632.268 210.716 631.328Z" fill="#FFFFFF"/>
<path d="M232.448 611.891C233.515 610.937 233.591 609.304 232.636 608.237C231.682 607.17 230.034 607.078 228.983 608.018C227.933 608.957 227.825 610.62 228.779 611.687C229.733 612.754 231.381 612.846 232.448 611.891Z" fill="#FFFFFF"/>
<path d="M219.269 662.794C220.336 661.84 220.428 660.192 219.474 659.125C218.52 658.058 216.872 657.966 215.805 658.921C214.738 659.875 214.662 661.508 215.617 662.575C216.571 663.642 218.219 663.734 219.269 662.794Z" fill="#FFFFFF"/>
</svg>
