<svg width="200" height="335" viewBox="0 0 200 335" fill="none" xmlns="http://www.w3.org/2000/svg">
<path d="M6.16978 156.973C6.57439 156.612 6.60923 155.987 6.24735 155.582C5.88547 155.177 5.26048 155.142 4.85587 155.504C4.45125 155.866 4.42264 156.486 4.78452 156.89C5.1464 157.295 5.77139 157.33 6.16978 156.973Z" fill="#FFFFFF"/>
<path d="M14.4115 149.602C14.8161 149.24 14.8447 148.621 14.4828 148.216C14.1209 147.811 13.496 147.777 13.0976 148.133C12.6992 148.489 12.6581 149.12 13.02 149.524C13.3819 149.929 14.0069 149.964 14.4115 149.602Z" fill="#FFFFFF"/>
<path d="M22.6594 142.225C23.064 141.863 23.0989 141.238 22.737 140.834C22.3751 140.429 21.7501 140.394 21.3455 140.756C20.9409 141.118 20.9123 141.737 21.2741 142.142C21.636 142.547 22.261 142.581 22.6594 142.225Z" fill="#FFFFFF"/>
<path d="M30.9064 134.86C31.312 134.498 31.3467 133.875 30.9839 133.469C30.6211 133.063 29.9981 133.029 29.5924 133.391C29.1868 133.754 29.152 134.377 29.5149 134.783C29.8777 135.189 30.5007 135.223 30.9064 134.86Z" fill="#FFFFFF"/>
<path d="M39.1489 127.476C39.5535 127.115 39.5821 126.495 39.2203 126.09C38.8584 125.686 38.2334 125.651 37.835 126.007C37.4366 126.364 37.3955 126.994 37.7574 127.399C38.1193 127.803 38.7443 127.838 39.1489 127.476Z" fill="#FFFFFF"/>
<path d="M47.3905 120.106C47.7951 119.744 47.8299 119.119 47.4681 118.714C47.1062 118.31 46.4812 118.275 46.0766 118.637C45.672 118.999 45.6433 119.618 46.0052 120.023C46.3671 120.427 46.9921 120.462 47.3905 120.106Z" fill="#FFFFFF"/>
<path d="M55.6384 112.729C56.043 112.367 56.0716 111.748 55.7098 111.343C55.3479 110.939 54.7229 110.904 54.3245 111.26C53.9261 111.616 53.885 112.247 54.2469 112.652C54.6088 113.056 55.2338 113.091 55.6384 112.729Z" fill="#FFFFFF"/>
<path d="M63.88 105.357C64.2846 104.996 64.3194 104.371 63.9576 103.966C63.5957 103.561 62.9707 103.527 62.5661 103.888C62.1615 104.25 62.1328 104.87 62.4947 105.274C62.8566 105.679 63.4816 105.714 63.88 105.357Z" fill="#FFFFFF"/>
<path d="M72.1335 97.9869C72.5392 97.6241 72.5739 97.0011 72.2111 96.5954C71.8483 96.1898 71.2253 96.155 70.8196 96.5178C70.4139 96.8807 70.3792 97.5037 70.742 97.9093C71.1049 98.315 71.7279 98.3497 72.1335 97.9869Z" fill="#FFFFFF"/>
<path d="M80.3696 90.6087C80.7742 90.2468 80.8028 89.6274 80.441 89.2228C80.0791 88.8182 79.4541 88.7834 79.0557 89.1397C78.6573 89.496 78.6162 90.1265 78.9781 90.5312C79.34 90.9358 79.965 90.9706 80.3696 90.6087Z" fill="#FFFFFF"/>
<path d="M88.6173 83.2329C89.0219 82.8711 89.0567 82.2461 88.6949 81.8415C88.333 81.4369 87.708 81.402 87.3034 81.7639C86.8988 82.1258 86.8701 82.7452 87.232 83.1498C87.5939 83.5544 88.2189 83.5893 88.6173 83.2329Z" fill="#FFFFFF"/>
<path d="M96.859 75.8617C97.2636 75.4998 97.2922 74.8804 96.9303 74.4757C96.5685 74.0711 95.9435 74.0363 95.5451 74.3926C95.1467 74.7489 95.1056 75.3795 95.4675 75.7841C95.8294 76.1887 96.4544 76.2235 96.859 75.8617Z" fill="#FFFFFF"/>
<path d="M105.101 68.49C105.505 68.1281 105.54 67.5032 105.178 67.0985C104.816 66.6939 104.191 66.6591 103.787 67.021C103.382 67.3829 103.354 68.0023 103.715 68.4069C104.077 68.8115 104.702 68.8463 105.101 68.49Z" fill="#FFFFFF"/>
<path d="M113.354 61.1192C113.76 60.7564 113.795 60.1334 113.432 59.7277C113.069 59.3221 112.446 59.2873 112.04 59.6502C111.635 60.013 111.6 60.636 111.963 61.0417C112.325 61.4473 112.948 61.4821 113.354 61.1192Z" fill="#FFFFFF"/>
<path d="M121.59 53.7423C121.995 53.3804 122.024 52.761 121.662 52.3564C121.3 51.9517 120.675 51.9169 120.276 52.2732C119.878 52.6295 119.837 53.2601 120.199 53.6647C120.561 54.0693 121.186 54.1042 121.59 53.7423Z" fill="#FFFFFF"/>
<path d="M129.838 46.3655C130.243 46.0036 130.277 45.3787 129.916 44.974C129.554 44.5694 128.929 44.5346 128.524 44.8965C128.119 45.2583 128.091 45.8778 128.453 46.2824C128.815 46.687 129.44 46.7218 129.838 46.3655Z" fill="#FFFFFF"/>
<path d="M138.08 38.9935C138.484 38.6316 138.513 38.0122 138.151 37.6076C137.789 37.203 137.164 37.1681 136.766 37.5244C136.367 37.8808 136.326 38.5113 136.688 38.9159C137.05 39.3205 137.675 39.3554 138.08 38.9935Z" fill="#FFFFFF"/>
<path d="M146.328 31.6172C146.732 31.2553 146.767 30.6304 146.405 30.2257C146.043 29.8211 145.418 29.7863 145.014 30.1482C144.609 30.51 144.58 31.1295 144.942 31.5341C145.304 31.9387 145.929 31.9735 146.328 31.6172Z" fill="#FFFFFF"/>
<path d="M154.575 24.2516C154.98 23.8887 155.015 23.2657 154.652 22.8601C154.29 22.4544 153.667 22.4197 153.261 22.7825C152.855 23.1453 152.82 23.7683 153.183 24.174C153.546 24.5796 154.169 24.6144 154.575 24.2516Z" fill="#FFFFFF"/>
<path d="M162.817 16.8685C163.222 16.5066 163.25 15.8872 162.888 15.4826C162.527 15.078 161.902 15.0431 161.503 15.3994C161.105 15.7557 161.064 16.3863 161.426 16.7909C161.788 17.1955 162.413 17.2304 162.817 16.8685Z" fill="#FFFFFF"/>
<path d="M171.059 9.49783C171.463 9.13595 171.498 8.51097 171.136 8.10635C170.774 7.70174 170.149 7.6669 169.745 8.02878C169.34 8.39066 169.312 9.01009 169.673 9.4147C170.035 9.81932 170.66 9.85415 171.059 9.49783Z" fill="#FFFFFF"/>
<path d="M179.307 2.12143C179.711 1.75955 179.74 1.14013 179.378 0.735522C179.016 0.330909 178.391 0.296059 177.993 0.652374C177.594 1.00869 177.553 1.63924 177.915 2.04385C178.277 2.44847 178.902 2.48331 179.307 2.12143Z" fill="#FFFFFF"/>
<path d="M9.41966 168.913C9.82427 168.551 9.85911 167.926 9.49723 167.521C9.13534 167.117 8.51036 167.082 8.10574 167.444C7.70113 167.805 7.67252 168.425 8.0344 168.829C8.39628 169.234 9.02127 169.269 9.41966 168.913Z" fill="#FFFFFF"/>
<path d="M17.6676 161.536C18.0732 161.173 18.108 160.55 17.7452 160.144C17.3823 159.739 16.7593 159.704 16.3537 160.067C15.948 160.43 15.9133 161.053 16.2761 161.458C16.6389 161.864 17.2619 161.899 17.6676 161.536Z" fill="#FFFFFF"/>
<path d="M25.9155 154.159C26.3201 153.797 26.3487 153.177 25.9869 152.773C25.625 152.368 25 152.333 24.6016 152.69C24.2032 153.046 24.1621 153.677 24.524 154.081C24.8859 154.486 25.5109 154.521 25.9155 154.159Z" fill="#FFFFFF"/>
<path d="M34.1571 146.787C34.5617 146.425 34.5965 145.8 34.2347 145.396C33.8728 144.991 33.2478 144.956 32.8432 145.318C32.4386 145.68 32.4099 146.299 32.7718 146.704C33.1337 147.109 33.7587 147.143 34.1571 146.787Z" fill="#FFFFFF"/>
<path d="M42.3987 139.416C42.8033 139.054 42.8319 138.435 42.47 138.03C42.1081 137.626 41.4831 137.591 41.0847 137.947C40.6864 138.303 40.6453 138.934 41.0072 139.339C41.3691 139.743 41.994 139.778 42.3987 139.416Z" fill="#FFFFFF"/>
<path d="M50.6467 132.039C51.0513 131.677 51.0862 131.052 50.7243 130.647C50.3624 130.243 49.7374 130.208 49.3328 130.57C48.9282 130.932 48.8996 131.551 49.2614 131.956C49.6233 132.36 50.2483 132.395 50.6467 132.039Z" fill="#FFFFFF"/>
<path d="M58.8882 124.669C59.2938 124.306 59.3286 123.683 58.9657 123.277C58.6029 122.871 57.9799 122.837 57.5742 123.199C57.1686 123.562 57.1339 124.185 57.4967 124.591C57.8595 124.997 58.4825 125.031 58.8882 124.669Z" fill="#FFFFFF"/>
<path d="M67.1361 117.291C67.5407 116.929 67.5693 116.31 67.2074 115.905C66.8455 115.501 66.2206 115.466 65.8222 115.822C65.4238 116.179 65.3827 116.809 65.7446 117.214C66.1065 117.618 66.7315 117.653 67.1361 117.291Z" fill="#FFFFFF"/>
<path d="M75.3778 109.919C75.7824 109.558 75.8172 108.933 75.4554 108.528C75.0935 108.123 74.4685 108.089 74.0639 108.45C73.6593 108.812 73.6306 109.432 73.9925 109.836C74.3544 110.241 74.9794 110.276 75.3778 109.919Z" fill="#FFFFFF"/>
<path d="M83.6257 102.543C84.0303 102.181 84.0589 101.562 83.6971 101.157C83.3352 100.753 82.7102 100.718 82.3118 101.074C81.9134 101.43 81.8723 102.061 82.2342 102.465C82.5961 102.87 83.2211 102.905 83.6257 102.543Z" fill="#FFFFFF"/>
<path d="M91.8672 95.1724C92.2718 94.8105 92.3066 94.1855 91.9447 93.7809C91.5829 93.3763 90.9579 93.3415 90.5533 93.7033C90.1486 94.0652 90.12 94.6847 90.4819 95.0893C90.8438 95.4939 91.4688 95.5287 91.8672 95.1724Z" fill="#FFFFFF"/>
<path d="M100.115 87.7948C100.521 87.4319 100.556 86.8089 100.193 86.4033C99.83 85.9976 99.207 85.9629 98.8013 86.3257C98.3956 86.6885 98.3609 87.3115 98.7237 87.7172C99.0866 88.1229 99.7095 88.1576 100.115 87.7948Z" fill="#FFFFFF"/>
<path d="M108.357 80.4237C108.761 80.0618 108.79 79.4424 108.428 79.0378C108.066 78.6331 107.441 78.5983 107.043 78.9546C106.644 79.3109 106.603 79.9415 106.965 80.3461C107.327 80.7507 107.952 80.7855 108.357 80.4237Z" fill="#FFFFFF"/>
<path d="M116.605 73.0469C117.009 72.685 117.044 72.06 116.682 71.6554C116.32 71.2508 115.695 71.216 115.291 71.5779C114.886 71.9397 114.858 72.5592 115.219 72.9638C115.581 73.3684 116.206 73.4032 116.605 73.0469Z" fill="#FFFFFF"/>
<path d="M124.846 65.6754C125.251 65.3135 125.28 64.6941 124.918 64.2895C124.556 63.8848 123.931 63.85 123.532 64.2063C123.134 64.5626 123.093 65.1932 123.455 65.5978C123.817 66.0024 124.442 66.0373 124.846 65.6754Z" fill="#FFFFFF"/>
<path d="M133.094 58.2986C133.499 57.9367 133.534 57.3117 133.172 56.9071C132.81 56.5025 132.185 56.4677 131.78 56.8296C131.376 57.1914 131.347 57.8109 131.709 58.2155C132.071 58.6201 132.696 58.6549 133.094 58.2986Z" fill="#FFFFFF"/>
<path d="M141.336 50.9271C141.742 50.5643 141.776 49.9413 141.413 49.5356C141.051 49.1299 140.428 49.0952 140.022 49.458C139.616 49.8209 139.582 50.4438 139.944 50.8495C140.307 51.2552 140.93 51.2899 141.336 50.9271Z" fill="#FFFFFF"/>
<path d="M149.584 43.5509C149.988 43.189 150.017 42.5696 149.655 42.165C149.293 41.7603 148.668 41.7255 148.27 42.0818C147.871 42.4381 147.83 43.0687 148.192 43.4733C148.554 43.8779 149.179 43.9128 149.584 43.5509Z" fill="#FFFFFF"/>
<path d="M157.825 36.1792C158.23 35.8174 158.265 35.1924 157.903 34.7878C157.541 34.3831 156.916 34.3483 156.511 34.7102C156.107 35.0721 156.078 35.6915 156.44 36.0961C156.802 36.5007 157.427 36.5356 157.825 36.1792Z" fill="#FFFFFF"/>
<path d="M166.073 28.8028C166.478 28.4409 166.506 27.8215 166.145 27.4169C165.783 27.0123 165.158 26.9774 164.759 27.3338C164.361 27.6901 164.32 28.3206 164.682 28.7253C165.044 29.1299 165.669 29.1647 166.073 28.8028Z" fill="#FFFFFF"/>
<path d="M174.315 21.4312C174.72 21.0693 174.754 20.4443 174.392 20.0397C174.031 19.6351 173.406 19.6002 173.001 19.9621C172.596 20.324 172.568 20.9434 172.93 21.3481C173.292 21.7527 173.917 21.7875 174.315 21.4312Z" fill="#FFFFFF"/>
<path d="M182.563 14.0543C182.968 13.6915 183.003 13.0685 182.64 12.6628C182.277 12.2571 181.654 12.2224 181.249 12.5852C180.843 12.9481 180.808 13.571 181.171 13.9767C181.534 14.3824 182.157 14.4171 182.563 14.0543Z" fill="#FFFFFF"/>
<path d="M20.9181 173.464C21.3227 173.102 21.3575 172.477 20.9956 172.072C20.6338 171.668 20.0088 171.633 19.6042 171.995C19.1995 172.356 19.1709 172.976 19.5328 173.381C19.8947 173.785 20.5197 173.82 20.9181 173.464Z" fill="#FFFFFF"/>
<path d="M29.1598 166.092C29.5644 165.73 29.593 165.11 29.2311 164.706C28.8692 164.301 28.2442 164.266 27.8459 164.623C27.4475 164.979 27.4064 165.609 27.7683 166.014C28.1302 166.419 28.7552 166.454 29.1598 166.092Z" fill="#FFFFFF"/>
<path d="M37.4075 158.715C37.8121 158.353 37.8469 157.728 37.485 157.323C37.1231 156.919 36.4982 156.884 36.0935 157.246C35.6889 157.608 35.6603 158.227 36.0222 158.632C36.3841 159.036 37.0091 159.071 37.4075 158.715Z" fill="#FFFFFF"/>
<path d="M45.6493 151.343C46.0539 150.981 46.0887 150.356 45.7268 149.952C45.365 149.547 44.74 149.512 44.3354 149.874C43.9307 150.236 43.8959 150.861 44.2578 151.266C44.6197 151.67 45.2447 151.705 45.6493 151.343Z" fill="#FFFFFF"/>
<path d="M53.8972 143.967C54.3018 143.605 54.3304 142.986 53.9685 142.581C53.6067 142.176 52.9817 142.142 52.5833 142.498C52.1849 142.854 52.1438 143.485 52.5057 143.889C52.8676 144.294 53.4926 144.329 53.8972 143.967Z" fill="#FFFFFF"/>
<path d="M62.1389 136.595C62.5435 136.233 62.5783 135.608 62.2165 135.204C61.8546 134.799 61.2296 134.764 60.825 135.126C60.4204 135.488 60.3918 136.107 60.7536 136.512C61.1155 136.916 61.7405 136.951 62.1389 136.595Z" fill="#FFFFFF"/>
<path d="M70.3868 129.218C70.7914 128.856 70.8201 128.237 70.4582 127.832C70.0963 127.428 69.4713 127.393 69.0729 127.749C68.6745 128.105 68.6335 128.736 68.9953 129.141C69.3572 129.545 69.9822 129.58 70.3868 129.218Z" fill="#FFFFFF"/>
<path d="M78.6283 121.848C79.0329 121.486 79.0677 120.861 78.7058 120.456C78.344 120.052 77.719 120.017 77.3144 120.379C76.9098 120.741 76.8811 121.36 77.243 121.765C77.6049 122.169 78.2299 122.204 78.6283 121.848Z" fill="#FFFFFF"/>
<path d="M86.8762 114.47C87.2808 114.108 87.3157 113.483 86.9538 113.079C86.5919 112.674 85.9669 112.639 85.5623 113.001C85.1577 113.363 85.1228 113.988 85.4847 114.393C85.8466 114.797 86.4716 114.832 86.8762 114.47Z" fill="#FFFFFF"/>
<path d="M95.1179 107.099C95.5225 106.737 95.5511 106.118 95.1892 105.713C94.8274 105.309 94.2024 105.274 93.804 105.63C93.4056 105.986 93.3645 106.617 93.7264 107.022C94.0883 107.426 94.7133 107.461 95.1179 107.099Z" fill="#FFFFFF"/>
<path d="M103.366 99.7225C103.77 99.3606 103.805 98.7356 103.443 98.331C103.082 97.9264 102.457 97.8915 102.052 98.2534C101.647 98.6153 101.619 99.2347 101.981 99.6393C102.342 100.044 102.967 100.079 103.366 99.7225Z" fill="#FFFFFF"/>
<path d="M111.608 92.3509C112.012 91.989 112.041 91.3696 111.679 90.965C111.317 90.5604 110.692 90.5255 110.294 90.8819C109.895 91.2382 109.854 91.8687 110.216 92.2733C110.578 92.678 111.203 92.7128 111.608 92.3509Z" fill="#FFFFFF"/>
<path d="M119.849 84.9798C120.254 84.6179 120.288 83.9929 119.927 83.5883C119.565 83.1837 118.94 83.1488 118.535 83.5107C118.13 83.8726 118.102 84.492 118.464 84.8966C118.826 85.3012 119.451 85.3361 119.849 84.9798Z" fill="#FFFFFF"/>
<path d="M128.097 77.6031C128.501 77.2412 128.536 76.6162 128.174 76.2116C127.812 75.807 127.187 75.7722 126.783 76.1341C126.378 76.4959 126.343 77.1209 126.705 77.5255C127.067 77.9302 127.692 77.965 128.097 77.6031Z" fill="#FFFFFF"/>
<path d="M136.338 70.231C136.743 69.8692 136.772 69.2497 136.41 68.8451C136.048 68.4405 135.423 68.4057 135.025 68.762C134.626 69.1183 134.585 69.7489 134.947 70.1535C135.309 70.5581 135.934 70.5929 136.338 70.231Z" fill="#FFFFFF"/>
<path d="M144.586 62.8548C144.991 62.4929 145.026 61.8679 144.664 61.4633C144.302 61.0587 143.677 61.0238 143.272 61.3857C142.868 61.7476 142.839 62.367 143.201 62.7716C143.563 63.1762 144.188 63.2111 144.586 62.8548Z" fill="#FFFFFF"/>
<path d="M152.828 55.4835C153.233 55.1216 153.261 54.5022 152.899 54.0976C152.538 53.693 151.913 53.6581 151.514 54.0144C151.116 54.3707 151.075 55.0013 151.437 55.4059C151.799 55.8105 152.423 55.8454 152.828 55.4835Z" fill="#FFFFFF"/>
<path d="M161.076 48.1065C161.481 47.7446 161.515 47.1196 161.153 46.715C160.792 46.3104 160.167 46.2755 159.762 46.6374C159.357 46.9993 159.329 47.6187 159.691 48.0233C160.053 48.428 160.678 48.4628 161.076 48.1065Z" fill="#FFFFFF"/>
<path d="M169.317 40.7357C169.722 40.3738 169.757 39.7488 169.395 39.3442C169.033 38.9396 168.408 38.9047 168.004 39.2666C167.599 39.6285 167.564 40.2535 167.926 40.6581C168.288 41.0627 168.913 41.0976 169.317 40.7357Z" fill="#FFFFFF"/>
<path d="M177.565 33.3585C177.97 32.9966 177.999 32.3772 177.637 31.9726C177.275 31.568 176.65 31.5331 176.252 31.8894C175.853 32.2457 175.812 32.8763 176.174 33.2809C176.536 33.6855 177.161 33.7204 177.565 33.3585Z" fill="#FFFFFF"/>
<path d="M185.807 25.9873C186.212 25.6255 186.247 25.0005 185.885 24.5959C185.523 24.1912 184.898 24.1564 184.493 24.5183C184.089 24.8802 184.06 25.4996 184.422 25.9042C184.784 26.3088 185.409 26.3437 185.807 25.9873Z" fill="#FFFFFF"/>
<path d="M194.055 18.6107C194.459 18.2488 194.488 17.6294 194.126 17.2248C193.764 16.8202 193.139 16.7853 192.741 17.1416C192.342 17.4979 192.301 18.1285 192.663 18.5331C193.025 18.9377 193.65 18.9726 194.055 18.6107Z" fill="#FFFFFF"/>
<path d="M24.1624 185.396C24.567 185.034 24.6018 184.409 24.24 184.005C23.8781 183.6 23.2586 183.571 22.854 183.933C22.4494 184.295 22.4208 184.915 22.7771 185.313C23.1334 185.711 23.764 185.752 24.1624 185.396Z" fill="#FFFFFF"/>
<path d="M32.4102 178.019C32.8148 177.657 32.8496 177.032 32.4878 176.627C32.1259 176.222 31.5064 176.194 31.1018 176.556C30.6972 176.918 30.6624 177.543 31.0187 177.941C31.375 178.339 32.0056 178.38 32.4102 178.019Z" fill="#FFFFFF"/>
<path d="M40.658 170.642C41.0626 170.28 41.0912 169.661 40.7293 169.256C40.3674 168.852 39.748 168.823 39.3496 169.179C38.9513 169.536 38.9102 170.166 39.2665 170.565C39.6228 170.963 40.2534 171.004 40.658 170.642Z" fill="#FFFFFF"/>
<path d="M48.8997 163.271C49.3043 162.909 49.3391 162.284 48.9773 161.879C48.6154 161.475 47.996 161.446 47.5913 161.808C47.1867 162.17 47.1581 162.789 47.5144 163.188C47.8707 163.586 48.5013 163.627 48.8997 163.271Z" fill="#FFFFFF"/>
<path d="M57.1415 155.899C57.5461 155.537 57.5747 154.918 57.2129 154.513C56.851 154.109 56.2315 154.08 55.8332 154.437C55.4348 154.793 55.3937 155.423 55.75 155.822C56.1063 156.22 56.7369 156.261 57.1415 155.899Z" fill="#FFFFFF"/>
<path d="M65.3893 148.522C65.7939 148.16 65.8288 147.536 65.4669 147.131C65.105 146.726 64.4856 146.698 64.081 147.06C63.6763 147.421 63.6477 148.041 64.0041 148.439C64.3604 148.838 64.9909 148.879 65.3893 148.522Z" fill="#FFFFFF"/>
<path d="M73.6309 141.151C74.0355 140.789 74.0703 140.164 73.7085 139.76C73.3466 139.355 72.7272 139.326 72.3225 139.688C71.9179 140.05 71.8831 140.675 72.2394 141.074C72.5957 141.472 73.2263 141.513 73.6309 141.151Z" fill="#FFFFFF"/>
<path d="M81.8787 133.775C82.2833 133.413 82.3119 132.794 81.95 132.389C81.5882 131.984 80.9687 131.956 80.5703 132.312C80.172 132.668 80.1309 133.299 80.4872 133.697C80.8435 134.096 81.4741 134.137 81.8787 133.775Z" fill="#FFFFFF"/>
<path d="M90.1205 126.403C90.5251 126.041 90.56 125.416 90.1981 125.012C89.8362 124.607 89.2168 124.579 88.8122 124.94C88.4076 125.302 88.3789 125.922 88.7353 126.32C89.0916 126.718 89.7221 126.76 90.1205 126.403Z" fill="#FFFFFF"/>
<path d="M98.3682 119.027C98.7728 118.665 98.8014 118.045 98.4395 117.641C98.0777 117.236 97.4582 117.207 97.0598 117.564C96.6615 117.92 96.6204 118.551 96.9767 118.949C97.333 119.347 97.9636 119.388 98.3682 119.027Z" fill="#FFFFFF"/>
<path d="M106.61 111.655C107.015 111.293 107.049 110.668 106.687 110.263C106.326 109.859 105.706 109.83 105.302 110.192C104.897 110.554 104.868 111.173 105.225 111.572C105.581 111.97 106.212 112.011 106.61 111.655Z" fill="#FFFFFF"/>
<path d="M114.858 104.279C115.262 103.917 115.297 103.292 114.935 102.887C114.574 102.483 113.954 102.454 113.549 102.816C113.145 103.178 113.11 103.803 113.466 104.201C113.823 104.6 114.453 104.641 114.858 104.279Z" fill="#FFFFFF"/>
<path d="M123.099 96.9072C123.504 96.5453 123.533 95.9259 123.171 95.5213C122.809 95.1167 122.189 95.088 121.791 95.4444C121.393 95.8007 121.352 96.4312 121.708 96.8296C122.064 97.228 122.695 97.2691 123.099 96.9072Z" fill="#FFFFFF"/>
<path d="M131.347 89.5304C131.752 89.1686 131.787 88.5436 131.425 88.139C131.063 87.7343 130.443 87.7057 130.039 88.0676C129.634 88.4295 129.606 89.0489 129.962 89.4473C130.318 89.8457 130.949 89.8868 131.347 89.5304Z" fill="#FFFFFF"/>
<path d="M139.589 82.1589C139.994 81.797 140.022 81.1776 139.66 80.773C139.298 80.3684 138.679 80.3398 138.281 80.6961C137.882 81.0524 137.841 81.6829 138.197 82.0813C138.554 82.4797 139.184 82.5208 139.589 82.1589Z" fill="#FFFFFF"/>
<path d="M147.837 74.7821C148.241 74.4203 148.276 73.7953 147.914 73.3907C147.552 72.986 146.933 72.9574 146.528 73.3193C146.124 73.6812 146.095 74.3006 146.451 74.699C146.808 75.0974 147.438 75.1385 147.837 74.7821Z" fill="#FFFFFF"/>
<path d="M156.078 67.4106C156.483 67.0487 156.518 66.4237 156.156 66.0191C155.794 65.6145 155.175 65.5859 154.77 65.9478C154.365 66.3097 154.331 66.9347 154.687 67.333C155.043 67.7314 155.674 67.7725 156.078 67.4106Z" fill="#FFFFFF"/>
<path d="M164.326 60.0334C164.731 59.6715 164.76 59.0521 164.398 58.6475C164.036 58.2429 163.416 58.2143 163.018 58.5706C162.62 58.9269 162.579 59.5575 162.935 59.9558C163.291 60.3542 163.922 60.3953 164.326 60.0334Z" fill="#FFFFFF"/>
<path d="M172.568 52.6628C172.973 52.3009 173.007 51.6759 172.645 51.2713C172.284 50.8667 171.664 50.838 171.26 51.1999C170.855 51.5618 170.826 52.1812 171.183 52.5796C171.539 52.978 172.17 53.0191 172.568 52.6628Z" fill="#FFFFFF"/>
<path d="M180.816 45.2863C181.22 44.9245 181.249 44.305 180.887 43.9004C180.525 43.4958 179.906 43.4672 179.507 43.8235C179.109 44.1798 179.068 44.8104 179.424 45.2088C179.781 45.6072 180.411 45.6482 180.816 45.2863Z" fill="#FFFFFF"/>
<path d="M189.057 37.9147C189.462 37.5528 189.497 36.9278 189.135 36.5232C188.773 36.1186 188.154 36.09 187.749 36.4519C187.344 36.8138 187.316 37.4332 187.672 37.8316C188.028 38.23 188.659 38.271 189.057 37.9147Z" fill="#FFFFFF"/>
<path d="M197.305 30.5381C197.71 30.1762 197.745 29.5512 197.383 29.1466C197.021 28.742 196.402 28.7133 195.997 29.0752C195.592 29.4371 195.558 30.0621 195.914 30.4605C196.27 30.8589 196.901 30.8999 197.305 30.5381Z" fill="#FFFFFF"/>
<path d="M35.6663 189.952C36.0709 189.59 36.1057 188.965 35.7494 188.567C35.3931 188.168 34.7626 188.127 34.3579 188.489C33.9533 188.851 33.9247 189.471 34.2866 189.875C34.6485 190.28 35.2679 190.308 35.6663 189.952Z" fill="#FFFFFF"/>
<path d="M43.9079 182.582C44.3125 182.22 44.3411 181.6 43.9848 181.202C43.6285 180.804 42.9979 180.763 42.5995 181.119C42.2011 181.475 42.1601 182.106 42.5219 182.51C42.8838 182.915 43.5033 182.944 43.9079 182.582Z" fill="#FFFFFF"/>
<path d="M52.1559 175.204C52.5605 174.842 52.5954 174.217 52.2391 173.819C51.8827 173.42 51.2522 173.379 50.8476 173.741C50.443 174.103 50.4143 174.722 50.7762 175.127C51.1381 175.531 51.7575 175.56 52.1559 175.204Z" fill="#FFFFFF"/>
<path d="M60.3974 167.833C60.802 167.471 60.8368 166.846 60.4805 166.447C60.1242 166.049 59.4936 166.008 59.089 166.37C58.6844 166.732 58.6496 167.357 59.0114 167.761C59.3733 168.166 59.9928 168.195 60.3974 167.833Z" fill="#FFFFFF"/>
<path d="M68.6453 160.456C69.0499 160.094 69.0785 159.475 68.7222 159.077C68.3659 158.678 67.7353 158.637 67.3369 158.993C66.9386 159.35 66.8975 159.98 67.2594 160.385C67.6213 160.79 68.2407 160.818 68.6453 160.456Z" fill="#FFFFFF"/>
<path d="M76.887 153.085C77.2916 152.723 77.3264 152.098 76.9701 151.699C76.6138 151.301 75.9833 151.26 75.5786 151.622C75.174 151.984 75.1454 152.603 75.5073 153.008C75.8692 153.412 76.4886 153.441 76.887 153.085Z" fill="#FFFFFF"/>
<path d="M85.1349 145.708C85.5395 145.346 85.5681 144.727 85.2118 144.328C84.8555 143.93 84.225 143.889 83.8266 144.245C83.4282 144.601 83.3871 145.232 83.749 145.637C84.1109 146.041 84.7303 146.07 85.1349 145.708Z" fill="#FFFFFF"/>
<path d="M93.3765 138.336C93.7811 137.974 93.8159 137.349 93.4596 136.951C93.1033 136.553 92.4728 136.512 92.0681 136.874C91.6635 137.235 91.6349 137.855 91.9968 138.259C92.3587 138.664 92.9781 138.693 93.3765 138.336Z" fill="#FFFFFF"/>
<path d="M101.624 130.96C102.029 130.598 102.064 129.973 101.708 129.574C101.351 129.176 100.721 129.135 100.316 129.497C99.9115 129.859 99.8766 130.484 100.238 130.888C100.6 131.293 101.22 131.322 101.624 130.96Z" fill="#FFFFFF"/>
<path d="M109.866 123.589C110.271 123.227 110.299 122.607 109.943 122.209C109.587 121.811 108.956 121.769 108.558 122.126C108.159 122.482 108.118 123.113 108.48 123.517C108.842 123.922 109.461 123.95 109.866 123.589Z" fill="#FFFFFF"/>
<path d="M118.114 116.212C118.519 115.85 118.553 115.225 118.197 114.827C117.841 114.428 117.21 114.387 116.806 114.749C116.401 115.111 116.372 115.73 116.734 116.135C117.096 116.54 117.716 116.568 118.114 116.212Z" fill="#FFFFFF"/>
<path d="M126.356 108.84C126.76 108.478 126.789 107.859 126.432 107.461C126.076 107.062 125.446 107.021 125.047 107.377C124.649 107.734 124.608 108.364 124.97 108.769C125.331 109.174 125.951 109.202 126.356 108.84Z" fill="#FFFFFF"/>
<path d="M134.597 101.469C135.002 101.107 135.037 100.482 134.68 100.083C134.324 99.685 133.693 99.644 133.289 100.006C132.884 100.368 132.856 100.987 133.218 101.392C133.579 101.796 134.199 101.825 134.597 101.469Z" fill="#FFFFFF"/>
<path d="M142.845 94.092C143.25 93.7301 143.285 93.1051 142.928 92.7067C142.572 92.3084 141.941 92.2673 141.537 92.6292C141.132 92.9911 141.097 93.616 141.459 94.0207C141.821 94.4253 142.441 94.4539 142.845 94.092Z" fill="#FFFFFF"/>
<path d="M151.087 86.7209C151.491 86.359 151.52 85.7396 151.163 85.3412C150.807 84.9428 150.177 84.9018 149.778 85.2581C149.38 85.6144 149.339 86.245 149.701 86.6496C150.063 87.0542 150.682 87.0828 151.087 86.7209Z" fill="#FFFFFF"/>
<path d="M159.334 79.3442C159.739 78.9823 159.774 78.3573 159.418 77.9589C159.061 77.5605 158.431 77.5194 158.026 77.8813C157.622 78.2432 157.593 78.8626 157.955 79.2672C158.317 79.6719 158.936 79.7005 159.334 79.3442Z" fill="#FFFFFF"/>
<path d="M167.576 71.9729C167.981 71.611 168.009 70.9916 167.653 70.5932C167.297 70.1948 166.666 70.1537 166.268 70.51C165.869 70.8663 165.828 71.4969 166.19 71.9015C166.552 72.3061 167.172 72.3347 167.576 71.9729Z" fill="#FFFFFF"/>
<path d="M175.824 64.5961C176.229 64.2342 176.264 63.6092 175.907 63.2108C175.551 62.8125 174.92 62.7714 174.516 63.1333C174.111 63.4952 174.083 64.1146 174.444 64.5192C174.806 64.9238 175.426 64.9524 175.824 64.5961Z" fill="#FFFFFF"/>
<path d="M184.066 57.2246C184.47 56.8627 184.505 56.2377 184.149 55.8393C183.793 55.4409 183.162 55.3999 182.757 55.7617C182.353 56.1236 182.318 56.7486 182.68 57.1532C183.042 57.5578 183.661 57.5865 184.066 57.2246Z" fill="#FFFFFF"/>
<path d="M192.314 49.8479C192.718 49.486 192.747 48.8666 192.39 48.4682C192.034 48.0698 191.404 48.0287 191.005 48.385C190.607 48.7413 190.566 49.3719 190.928 49.7765C191.289 50.1811 191.909 50.2097 192.314 49.8479Z" fill="#FFFFFF"/>
<path d="M200.555 42.4767C200.96 42.1148 200.995 41.4898 200.638 41.0915C200.282 40.6931 199.651 40.652 199.247 41.0139C198.842 41.3758 198.814 41.9952 199.176 42.3998C199.537 42.8044 200.157 42.833 200.555 42.4767Z" fill="#FFFFFF"/>
<path d="M38.9105 201.885C39.3151 201.523 39.35 200.898 38.9881 200.494C38.6262 200.089 38.0012 200.054 37.5966 200.416C37.192 200.778 37.1634 201.398 37.5252 201.802C37.8871 202.207 38.5121 202.242 38.9105 201.885Z" fill="#FFFFFF"/>
<path d="M47.1637 194.514C47.5693 194.152 47.6041 193.529 47.2412 193.123C46.8784 192.717 46.2554 192.683 45.8498 193.045C45.4441 193.408 45.4094 194.031 45.7722 194.437C46.135 194.843 46.758 194.877 47.1637 194.514Z" fill="#FFFFFF"/>
<path d="M55.4062 187.132C55.8108 186.77 55.8395 186.151 55.4776 185.746C55.1157 185.341 54.4907 185.307 54.0923 185.663C53.6939 186.019 53.6529 186.65 54.0147 187.054C54.3766 187.459 55.0016 187.494 55.4062 187.132Z" fill="#FFFFFF"/>
<path d="M63.6479 179.76C64.0525 179.398 64.0874 178.773 63.7255 178.369C63.3636 177.964 62.7386 177.929 62.334 178.291C61.9294 178.653 61.9008 179.273 62.2627 179.677C62.6246 180.082 63.2495 180.117 63.6479 179.76Z" fill="#FFFFFF"/>
<path d="M71.8895 172.389C72.2941 172.028 72.3227 171.408 71.9608 171.004C71.599 170.599 70.974 170.564 70.5756 170.92C70.1772 171.277 70.1361 171.907 70.498 172.312C70.8599 172.717 71.4849 172.751 71.8895 172.389Z" fill="#FFFFFF"/>
<path d="M80.1374 165.012C80.542 164.65 80.5769 164.025 80.215 163.621C79.8531 163.216 79.2281 163.181 78.8235 163.543C78.4189 163.905 78.3903 164.524 78.7522 164.929C79.1141 165.333 79.739 165.368 80.1374 165.012Z" fill="#FFFFFF"/>
<path d="M88.3844 157.647C88.79 157.284 88.8248 156.661 88.4619 156.255C88.0991 155.85 87.4761 155.815 87.0705 156.178C86.6648 156.541 86.6301 157.164 86.9929 157.569C87.3557 157.975 87.9787 158.01 88.3844 157.647Z" fill="#FFFFFF"/>
<path d="M96.6269 150.264C97.0315 149.902 97.0602 149.283 96.6983 148.878C96.3364 148.473 95.7114 148.439 95.313 148.795C94.9146 149.151 94.8736 149.782 95.2354 150.186C95.5973 150.591 96.2223 150.626 96.6269 150.264Z" fill="#FFFFFF"/>
<path d="M104.869 142.892C105.273 142.53 105.308 141.906 104.946 141.501C104.584 141.096 103.959 141.061 103.555 141.423C103.15 141.785 103.121 142.405 103.483 142.809C103.845 143.214 104.47 143.249 104.869 142.892Z" fill="#FFFFFF"/>
<path d="M113.116 135.516C113.521 135.154 113.55 134.535 113.188 134.13C112.826 133.726 112.201 133.691 111.802 134.047C111.404 134.403 111.363 135.034 111.725 135.439C112.087 135.843 112.712 135.878 113.116 135.516Z" fill="#FFFFFF"/>
<path d="M121.358 128.145C121.763 127.783 121.798 127.158 121.436 126.753C121.074 126.348 120.449 126.314 120.044 126.676C119.64 127.037 119.611 127.657 119.973 128.061C120.335 128.466 120.96 128.501 121.358 128.145Z" fill="#FFFFFF"/>
<path d="M129.611 120.774C130.017 120.411 130.052 119.788 129.689 119.383C129.326 118.977 128.703 118.942 128.297 119.305C127.892 119.668 127.857 120.291 128.22 120.697C128.583 121.102 129.206 121.137 129.611 120.774Z" fill="#FFFFFF"/>
<path d="M137.848 113.396C138.252 113.034 138.281 112.415 137.919 112.01C137.557 111.606 136.932 111.571 136.534 111.927C136.135 112.284 136.094 112.914 136.456 113.319C136.818 113.723 137.443 113.758 137.848 113.396Z" fill="#FFFFFF"/>
<path d="M146.095 106.02C146.5 105.658 146.535 105.033 146.173 104.628C145.811 104.223 145.186 104.189 144.781 104.551C144.377 104.912 144.348 105.532 144.71 105.936C145.072 106.341 145.697 106.376 146.095 106.02Z" fill="#FFFFFF"/>
<path d="M154.337 98.6485C154.742 98.2866 154.77 97.6672 154.408 97.2626C154.047 96.858 153.422 96.8231 153.023 97.1795C152.625 97.5358 152.584 98.1663 152.946 98.571C153.308 98.9756 153.933 99.0104 154.337 98.6485Z" fill="#FFFFFF"/>
<path d="M162.585 91.2718C162.99 90.9099 163.024 90.2849 162.663 89.8803C162.301 89.4757 161.676 89.4408 161.271 89.8027C160.866 90.1646 160.838 90.784 161.2 91.1886C161.562 91.5932 162.187 91.6281 162.585 91.2718Z" fill="#FFFFFF"/>
<path d="M170.832 83.9066C171.238 83.5438 171.272 82.9208 170.909 82.5151C170.547 82.1094 169.924 82.0747 169.518 82.4375C169.112 82.8004 169.078 83.4233 169.44 83.829C169.803 84.2347 170.426 84.2694 170.832 83.9066Z" fill="#FFFFFF"/>
<path d="M179.074 76.5235C179.479 76.1616 179.508 75.5422 179.146 75.1376C178.784 74.733 178.159 74.6982 177.76 75.0545C177.362 75.4108 177.321 76.0413 177.683 76.446C178.045 76.8506 178.67 76.8854 179.074 76.5235Z" fill="#FFFFFF"/>
<path d="M187.316 69.1519C187.721 68.79 187.756 68.165 187.394 67.7604C187.032 67.3558 186.407 67.321 186.002 67.6828C185.598 68.0447 185.569 68.6641 185.931 69.0688C186.293 69.4734 186.918 69.5082 187.316 69.1519Z" fill="#FFFFFF"/>
<path d="M195.564 61.7752C195.968 61.4133 195.997 60.7939 195.635 60.3893C195.273 59.9847 194.648 59.9499 194.25 60.3062C193.852 60.6625 193.81 61.293 194.172 61.6977C194.534 62.1023 195.159 62.1371 195.564 61.7752Z" fill="#FFFFFF"/>
<path d="M50.4143 206.442C50.8189 206.08 50.8537 205.455 50.4919 205.051C50.13 204.646 49.505 204.611 49.1004 204.973C48.6958 205.335 48.6671 205.954 49.029 206.359C49.3909 206.764 50.0159 206.798 50.4143 206.442Z" fill="#FFFFFF"/>
<path d="M58.656 199.071C59.0606 198.709 59.0892 198.089 58.7273 197.685C58.3654 197.28 57.7405 197.245 57.3421 197.602C56.9437 197.958 56.9026 198.588 57.2645 198.993C57.6264 199.398 58.2514 199.433 58.656 199.071Z" fill="#FFFFFF"/>
<path d="M66.9039 191.694C67.3085 191.332 67.3434 190.707 66.9815 190.302C66.6196 189.898 65.9946 189.863 65.59 190.225C65.1854 190.587 65.1568 191.206 65.5187 191.611C65.8805 192.015 66.5055 192.05 66.9039 191.694Z" fill="#FFFFFF"/>
<path d="M75.1455 184.322C75.5512 183.96 75.5859 183.337 75.2231 182.931C74.8602 182.525 74.2372 182.49 73.8316 182.853C73.4259 183.216 73.3912 183.839 73.754 184.245C74.1168 184.65 74.7398 184.685 75.1455 184.322Z" fill="#FFFFFF"/>
<path d="M83.3934 176.945C83.798 176.583 83.8266 175.964 83.4648 175.559C83.1029 175.155 82.4779 175.12 82.0795 175.476C81.6811 175.832 81.64 176.463 82.0019 176.868C82.3638 177.272 82.9888 177.307 83.3934 176.945Z" fill="#FFFFFF"/>
<path d="M91.6349 169.575C92.0395 169.213 92.0743 168.588 91.7124 168.183C91.3506 167.778 90.7256 167.744 90.321 168.105C89.9163 168.467 89.8877 169.087 90.2496 169.491C90.6115 169.896 91.2365 169.931 91.6349 169.575Z" fill="#FFFFFF"/>
<path d="M99.883 162.197C100.288 161.835 100.316 161.216 99.9544 160.811C99.5925 160.407 98.9675 160.372 98.5691 160.728C98.1707 161.084 98.1297 161.715 98.4916 162.12C98.8534 162.524 99.4784 162.559 99.883 162.197Z" fill="#FFFFFF"/>
<path d="M108.124 154.826C108.529 154.465 108.564 153.84 108.202 153.435C107.84 153.03 107.215 152.996 106.811 153.357C106.406 153.719 106.377 154.339 106.739 154.743C107.101 155.148 107.726 155.183 108.124 154.826Z" fill="#FFFFFF"/>
<path d="M116.372 147.45C116.778 147.087 116.813 146.464 116.45 146.058C116.087 145.653 115.464 145.618 115.059 145.981C114.653 146.344 114.618 146.967 114.981 147.372C115.344 147.778 115.967 147.813 116.372 147.45Z" fill="#FFFFFF"/>
<path d="M124.614 140.078C125.019 139.716 125.047 139.096 124.685 138.692C124.324 138.287 123.699 138.252 123.3 138.609C122.902 138.965 122.861 139.596 123.223 140C123.585 140.405 124.21 140.44 124.614 140.078Z" fill="#FFFFFF"/>
<path d="M132.862 132.701C133.267 132.339 133.301 131.714 132.939 131.309C132.578 130.905 131.953 130.87 131.548 131.232C131.143 131.594 131.115 132.213 131.477 132.618C131.839 133.022 132.464 133.057 132.862 132.701Z" fill="#FFFFFF"/>
<path d="M141.103 125.33C141.508 124.968 141.537 124.349 141.175 123.944C140.813 123.539 140.188 123.505 139.79 123.861C139.391 124.217 139.35 124.848 139.712 125.252C140.074 125.657 140.699 125.692 141.103 125.33Z" fill="#FFFFFF"/>
<path d="M149.345 117.959C149.75 117.597 149.785 116.972 149.423 116.567C149.061 116.163 148.436 116.128 148.031 116.49C147.627 116.852 147.598 117.471 147.96 117.876C148.322 118.28 148.947 118.315 149.345 117.959Z" fill="#FFFFFF"/>
<path d="M157.593 110.582C157.999 110.219 158.034 109.596 157.671 109.191C157.308 108.785 156.685 108.75 156.279 109.113C155.874 109.476 155.839 110.099 156.202 110.505C156.564 110.91 157.187 110.945 157.593 110.582Z" fill="#FFFFFF"/>
<path d="M165.835 103.211C166.239 102.849 166.268 102.229 165.906 101.825C165.544 101.42 164.919 101.385 164.521 101.741C164.122 102.098 164.081 102.728 164.443 103.133C164.805 103.538 165.43 103.572 165.835 103.211Z" fill="#FFFFFF"/>
<path d="M174.082 95.8343C174.487 95.4724 174.522 94.8474 174.16 94.4428C173.798 94.0382 173.173 94.0033 172.769 94.3652C172.364 94.7271 172.335 95.3465 172.697 95.7511C173.059 96.1557 173.684 96.1906 174.082 95.8343Z" fill="#FFFFFF"/>
<path d="M182.324 88.463C182.729 88.1011 182.757 87.4817 182.396 87.0771C182.034 86.6724 181.409 86.6376 181.01 86.9939C180.612 87.3502 180.571 87.9808 180.933 88.3854C181.295 88.79 181.92 88.8249 182.324 88.463Z" fill="#FFFFFF"/>
<path d="M190.572 81.086C190.977 80.7241 191.011 80.0991 190.65 79.6945C190.288 79.2899 189.663 79.255 189.258 79.6169C188.853 79.9788 188.825 80.5982 189.187 81.0028C189.549 81.4075 190.174 81.4423 190.572 81.086Z" fill="#FFFFFF"/>
<path d="M198.814 73.714C199.219 73.3511 199.254 72.7281 198.891 72.3225C198.528 71.9168 197.905 71.8821 197.5 72.2449C197.094 72.6077 197.059 73.2307 197.422 73.6364C197.785 74.0421 198.408 74.0768 198.814 73.714Z" fill="#FFFFFF"/>
<path d="M53.6583 218.375C54.0629 218.013 54.0978 217.388 53.7359 216.984C53.374 216.579 52.749 216.544 52.3444 216.906C51.9398 217.268 51.9112 217.887 52.273 218.292C52.6349 218.697 53.2599 218.731 53.6583 218.375Z" fill="#FFFFFF"/>
<path d="M61.9062 210.998C62.3108 210.636 62.3457 210.011 61.9838 209.606C61.6219 209.202 60.9969 209.167 60.5923 209.529C60.1877 209.891 60.1529 210.516 60.5147 210.92C60.8766 211.325 61.5016 211.36 61.9062 210.998Z" fill="#FFFFFF"/>
<path d="M70.1542 203.621C70.5588 203.259 70.5874 202.64 70.2255 202.235C69.8636 201.831 69.2386 201.796 68.8402 202.152C68.4419 202.508 68.4008 203.139 68.7627 203.544C69.1246 203.948 69.7495 203.983 70.1542 203.621Z" fill="#FFFFFF"/>
<path d="M78.3959 196.25C78.8005 195.888 78.8353 195.263 78.4734 194.858C78.1115 194.453 77.4866 194.419 77.0819 194.78C76.6773 195.142 76.6487 195.762 77.0106 196.166C77.3725 196.571 77.9975 196.606 78.3959 196.25Z" fill="#FFFFFF"/>
<path d="M86.6376 188.879C87.0422 188.517 87.0708 187.897 86.7089 187.493C86.347 187.088 85.722 187.053 85.3236 187.409C84.9253 187.766 84.8842 188.396 85.2461 188.801C85.608 189.206 86.2329 189.24 86.6376 188.879Z" fill="#FFFFFF"/>
<path d="M94.8852 181.502C95.2898 181.14 95.3247 180.515 94.9628 180.11C94.6009 179.706 93.9759 179.671 93.5713 180.033C93.1667 180.395 93.1381 181.014 93.5 181.419C93.8619 181.823 94.4868 181.858 94.8852 181.502Z" fill="#FFFFFF"/>
<path d="M103.127 174.13C103.532 173.769 103.567 173.144 103.205 172.739C102.843 172.334 102.218 172.3 101.813 172.661C101.409 173.023 101.374 173.648 101.736 174.053C102.097 174.457 102.722 174.492 103.127 174.13Z" fill="#FFFFFF"/>
<path d="M111.375 166.754C111.779 166.392 111.808 165.772 111.446 165.368C111.084 164.963 110.459 164.928 110.061 165.284C109.663 165.641 109.621 166.271 109.983 166.676C110.345 167.081 110.97 167.115 111.375 166.754Z" fill="#FFFFFF"/>
<path d="M119.617 159.382C120.021 159.02 120.056 158.395 119.694 157.99C119.332 157.586 118.707 157.551 118.303 157.913C117.898 158.275 117.869 158.894 118.231 159.299C118.593 159.703 119.218 159.738 119.617 159.382Z" fill="#FFFFFF"/>
<path d="M127.864 152.005C128.269 151.643 128.297 151.024 127.936 150.619C127.574 150.215 126.949 150.18 126.55 150.536C126.152 150.892 126.111 151.523 126.473 151.928C126.835 152.332 127.46 152.367 127.864 152.005Z" fill="#FFFFFF"/>
<path d="M136.106 144.634C136.511 144.272 136.546 143.647 136.184 143.242C135.822 142.838 135.197 142.803 134.792 143.165C134.388 143.527 134.359 144.146 134.721 144.551C135.083 144.955 135.708 144.99 136.106 144.634Z" fill="#FFFFFF"/>
<path d="M144.354 137.257C144.758 136.895 144.793 136.27 144.431 135.866C144.07 135.461 143.445 135.426 143.04 135.788C142.635 136.15 142.6 136.775 142.962 137.18C143.324 137.584 143.949 137.619 144.354 137.257Z" fill="#FFFFFF"/>
<path d="M152.595 129.886C153 129.524 153.029 128.905 152.667 128.5C152.305 128.096 151.68 128.061 151.282 128.417C150.883 128.773 150.842 129.404 151.204 129.809C151.566 130.213 152.191 130.248 152.595 129.886Z" fill="#FFFFFF"/>
<path d="M160.843 122.509C161.248 122.147 161.283 121.522 160.921 121.118C160.559 120.713 159.934 120.678 159.529 121.04C159.125 121.402 159.096 122.022 159.458 122.426C159.82 122.831 160.445 122.866 160.843 122.509Z" fill="#FFFFFF"/>
<path d="M169.085 115.138C169.49 114.776 169.518 114.156 169.156 113.752C168.795 113.347 168.17 113.312 167.771 113.669C167.373 114.025 167.332 114.656 167.694 115.06C168.055 115.465 168.68 115.5 169.085 115.138Z" fill="#FFFFFF"/>
<path d="M177.333 107.761C177.737 107.399 177.772 106.774 177.41 106.37C177.048 105.965 176.423 105.93 176.019 106.292C175.614 106.654 175.586 107.273 175.947 107.678C176.309 108.082 176.934 108.117 177.333 107.761Z" fill="#FFFFFF"/>
<path d="M185.575 100.39C185.979 100.028 186.014 99.4031 185.652 98.9985C185.29 98.5939 184.665 98.559 184.261 98.9209C183.856 99.2828 183.821 99.9078 184.183 100.312C184.545 100.717 185.17 100.752 185.575 100.39Z" fill="#FFFFFF"/>
<path d="M193.822 93.0133C194.227 92.6514 194.255 92.032 193.894 91.6274C193.532 91.2227 192.907 91.1879 192.508 91.5442C192.11 91.9005 192.069 92.5311 192.431 92.9357C192.793 93.3403 193.418 93.3752 193.822 93.0133Z" fill="#FFFFFF"/>
<path d="M65.1624 222.932C65.567 222.57 65.6018 221.945 65.2399 221.54C64.8781 221.135 64.2586 221.107 63.854 221.469C63.4494 221.831 63.4208 222.45 63.7771 222.848C64.1334 223.247 64.764 223.288 65.1624 222.932Z" fill="#FFFFFF"/>
<path d="M73.4042 215.56C73.8088 215.198 73.8374 214.579 73.4755 214.174C73.1137 213.77 72.4942 213.741 72.0959 214.097C71.6975 214.454 71.6564 215.084 72.0127 215.483C72.369 215.881 72.9996 215.922 73.4042 215.56Z" fill="#FFFFFF"/>
<path d="M81.6519 208.183C82.0565 207.821 82.0913 207.196 81.7295 206.792C81.3676 206.387 80.7482 206.359 80.3435 206.72C79.9389 207.082 79.9103 207.702 80.2666 208.1C80.6229 208.499 81.2535 208.54 81.6519 208.183Z" fill="#FFFFFF"/>
<path d="M89.8936 200.812C90.2982 200.45 90.333 199.825 89.9712 199.42C89.6093 199.016 88.9898 198.987 88.5852 199.349C88.1806 199.711 88.1458 200.336 88.5021 200.734C88.8584 201.133 89.489 201.174 89.8936 200.812Z" fill="#FFFFFF"/>
<path d="M98.1415 193.435C98.5461 193.073 98.5747 192.453 98.2129 192.049C97.851 191.644 97.2315 191.615 96.8332 191.972C96.4348 192.328 96.3937 192.959 96.75 193.357C97.1063 193.755 97.7369 193.796 98.1415 193.435Z" fill="#FFFFFF"/>
<path d="M106.383 186.064C106.788 185.702 106.823 185.077 106.461 184.673C106.099 184.268 105.479 184.239 105.075 184.601C104.67 184.963 104.642 185.583 104.998 185.981C105.354 186.379 105.985 186.42 106.383 186.064Z" fill="#FFFFFF"/>
<path d="M114.631 178.687C115.035 178.326 115.064 177.706 114.702 177.302C114.34 176.897 113.721 176.868 113.323 177.225C112.924 177.581 112.883 178.212 113.239 178.61C113.596 179.008 114.226 179.049 114.631 178.687Z" fill="#FFFFFF"/>
<path d="M122.873 171.316C123.277 170.954 123.312 170.329 122.95 169.924C122.588 169.52 121.969 169.491 121.564 169.853C121.16 170.215 121.131 170.834 121.487 171.233C121.844 171.631 122.474 171.672 122.873 171.316Z" fill="#FFFFFF"/>
<path d="M131.121 163.939C131.525 163.577 131.56 162.952 131.198 162.548C130.836 162.143 130.217 162.114 129.812 162.476C129.408 162.838 129.373 163.463 129.729 163.862C130.085 164.26 130.716 164.301 131.121 163.939Z" fill="#FFFFFF"/>
<path d="M139.362 156.568C139.767 156.206 139.795 155.587 139.433 155.182C139.072 154.778 138.452 154.749 138.054 155.105C137.655 155.462 137.614 156.092 137.971 156.491C138.327 156.889 138.957 156.93 139.362 156.568Z" fill="#FFFFFF"/>
<path d="M147.61 149.191C148.015 148.829 148.049 148.204 147.688 147.799C147.326 147.395 146.706 147.366 146.302 147.728C145.897 148.09 145.868 148.709 146.225 149.108C146.581 149.506 147.212 149.547 147.61 149.191Z" fill="#FFFFFF"/>
<path d="M155.852 141.82C156.256 141.458 156.285 140.838 155.923 140.434C155.561 140.029 154.942 140.001 154.543 140.357C154.145 140.713 154.104 141.344 154.46 141.742C154.816 142.141 155.447 142.182 155.852 141.82Z" fill="#FFFFFF"/>
<path d="M164.093 134.448C164.498 134.086 164.533 133.461 164.171 133.057C163.809 132.652 163.19 132.623 162.785 132.985C162.38 133.347 162.352 133.967 162.708 134.365C163.064 134.763 163.695 134.804 164.093 134.448Z" fill="#FFFFFF"/>
<path d="M172.341 127.072C172.746 126.71 172.781 126.085 172.419 125.68C172.057 125.275 171.437 125.247 171.033 125.609C170.628 125.971 170.593 126.596 170.95 126.994C171.306 127.392 171.936 127.433 172.341 127.072Z" fill="#FFFFFF"/>
<path d="M180.583 119.701C180.987 119.339 181.016 118.719 180.654 118.315C180.292 117.91 179.673 117.881 179.274 118.238C178.876 118.594 178.835 119.225 179.191 119.623C179.548 120.021 180.178 120.063 180.583 119.701Z" fill="#FFFFFF"/>
<path d="M188.831 112.324C189.235 111.962 189.27 111.337 188.908 110.932C188.546 110.528 187.927 110.499 187.522 110.861C187.118 111.223 187.089 111.842 187.445 112.241C187.802 112.639 188.432 112.68 188.831 112.324Z" fill="#FFFFFF"/>
<path d="M197.072 104.952C197.477 104.59 197.506 103.971 197.144 103.566C196.782 103.162 196.162 103.133 195.764 103.49C195.366 103.846 195.325 104.476 195.681 104.875C196.037 105.273 196.668 105.314 197.072 104.952Z" fill="#FFFFFF"/>
<path d="M68.4066 234.864C68.8113 234.502 68.8461 233.877 68.4898 233.479C68.1335 233.08 67.5029 233.039 67.0983 233.401C66.6937 233.763 66.6651 234.382 67.027 234.787C67.3888 235.192 68.0083 235.22 68.4066 234.864Z" fill="#FFFFFF"/>
<path d="M76.6546 227.487C77.0592 227.125 77.094 226.5 76.7377 226.102C76.3814 225.704 75.7508 225.663 75.3462 226.024C74.9416 226.386 74.9068 227.011 75.2687 227.416C75.6305 227.821 76.25 227.849 76.6546 227.487Z" fill="#FFFFFF"/>
<path d="M84.9023 220.111C85.3069 219.749 85.3355 219.13 84.9792 218.731C84.6228 218.333 83.9923 218.292 83.5939 218.648C83.1955 219.005 83.1544 219.635 83.5163 220.04C83.8782 220.444 84.4976 220.473 84.9023 220.111Z" fill="#FFFFFF"/>
<path d="M93.1439 212.739C93.5486 212.378 93.5834 211.753 93.2271 211.354C92.8708 210.956 92.2402 210.915 91.8356 211.277C91.431 211.638 91.4024 212.258 91.7643 212.663C92.1261 213.067 92.7456 213.096 93.1439 212.739Z" fill="#FFFFFF"/>
<path d="M101.386 205.367C101.79 205.006 101.819 204.386 101.462 203.988C101.106 203.589 100.476 203.548 100.077 203.905C99.6788 204.261 99.6377 204.891 99.9996 205.296C100.361 205.701 100.981 205.729 101.386 205.367Z" fill="#FFFFFF"/>
<path d="M109.633 197.991C110.038 197.629 110.073 197.004 109.717 196.606C109.36 196.207 108.73 196.166 108.325 196.528C107.92 196.89 107.892 197.51 108.254 197.914C108.616 198.319 109.235 198.347 109.633 197.991Z" fill="#FFFFFF"/>
<path d="M117.875 190.62C118.28 190.258 118.315 189.633 117.958 189.235C117.602 188.836 116.971 188.795 116.567 189.157C116.162 189.519 116.127 190.144 116.489 190.548C116.851 190.953 117.471 190.982 117.875 190.62Z" fill="#FFFFFF"/>
<path d="M126.123 183.243C126.527 182.881 126.556 182.262 126.2 181.863C125.843 181.465 125.213 181.424 124.814 181.78C124.416 182.137 124.375 182.767 124.737 183.172C125.099 183.576 125.718 183.605 126.123 183.243Z" fill="#FFFFFF"/>
<path d="M134.365 175.871C134.769 175.509 134.804 174.884 134.448 174.486C134.091 174.088 133.461 174.047 133.056 174.408C132.652 174.77 132.623 175.39 132.985 175.794C133.347 176.199 133.966 176.228 134.365 175.871Z" fill="#FFFFFF"/>
<path d="M142.612 168.495C143.017 168.133 143.046 167.514 142.689 167.116C142.333 166.717 141.702 166.676 141.304 167.032C140.906 167.389 140.865 168.019 141.227 168.424C141.588 168.829 142.208 168.857 142.612 168.495Z" fill="#FFFFFF"/>
<path d="M150.854 161.124C151.259 160.762 151.294 160.137 150.937 159.738C150.581 159.34 149.95 159.299 149.546 159.661C149.141 160.023 149.113 160.642 149.474 161.047C149.836 161.451 150.456 161.48 150.854 161.124Z" fill="#FFFFFF"/>
<path d="M159.102 153.747C159.506 153.385 159.541 152.76 159.185 152.361C158.829 151.963 158.198 151.922 157.793 152.284C157.389 152.646 157.354 153.271 157.716 153.675C158.078 154.08 158.697 154.108 159.102 153.747Z" fill="#FFFFFF"/>
<path d="M167.344 146.375C167.748 146.014 167.777 145.394 167.42 144.996C167.064 144.597 166.434 144.556 166.035 144.913C165.637 145.269 165.596 145.899 165.958 146.304C166.319 146.709 166.939 146.737 167.344 146.375Z" fill="#FFFFFF"/>
<path d="M175.592 138.998C175.996 138.636 176.031 138.011 175.675 137.613C175.319 137.215 174.688 137.173 174.283 137.535C173.879 137.897 173.85 138.517 174.212 138.921C174.574 139.326 175.193 139.355 175.592 138.998Z" fill="#FFFFFF"/>
<path d="M183.833 131.628C184.238 131.266 184.266 130.646 183.91 130.248C183.554 129.85 182.923 129.809 182.525 130.165C182.126 130.521 182.085 131.152 182.447 131.556C182.809 131.961 183.429 131.99 183.833 131.628Z" fill="#FFFFFF"/>
<path d="M192.081 124.25C192.485 123.889 192.52 123.264 192.164 122.865C191.808 122.467 191.177 122.426 190.773 122.788C190.368 123.149 190.339 123.769 190.701 124.173C191.063 124.578 191.682 124.607 192.081 124.25Z" fill="#FFFFFF"/>
<path d="M200.323 116.88C200.727 116.518 200.762 115.893 200.406 115.494C200.05 115.096 199.419 115.055 199.014 115.417C198.61 115.779 198.575 116.404 198.937 116.808C199.299 117.213 199.918 117.241 200.323 116.88Z" fill="#FFFFFF"/>
<path d="M79.9106 239.421C80.3152 239.059 80.3501 238.434 79.9882 238.03C79.6263 237.625 79.0013 237.59 78.5967 237.952C78.1921 238.314 78.1635 238.933 78.5254 239.338C78.8872 239.743 79.5122 239.777 79.9106 239.421Z" fill="#FFFFFF"/>
<path d="M88.1523 232.05C88.5569 231.688 88.5855 231.069 88.2237 230.664C87.8618 230.259 87.2368 230.225 86.8384 230.581C86.44 230.937 86.399 231.568 86.7608 231.972C87.1227 232.377 87.7477 232.412 88.1523 232.05Z" fill="#FFFFFF"/>
<path d="M96.4001 224.673C96.8047 224.311 96.8396 223.686 96.4777 223.281C96.1158 222.877 95.4908 222.842 95.0862 223.204C94.6816 223.566 94.653 224.185 95.0149 224.59C95.3767 224.994 96.0017 225.029 96.4001 224.673Z" fill="#FFFFFF"/>
<path d="M104.642 217.302C105.048 216.939 105.082 216.316 104.72 215.91C104.357 215.504 103.734 215.47 103.328 215.833C102.922 216.195 102.888 216.818 103.25 217.224C103.613 217.63 104.236 217.664 104.642 217.302Z" fill="#FFFFFF"/>
<path d="M112.89 209.925C113.294 209.563 113.323 208.944 112.961 208.539C112.599 208.134 111.974 208.1 111.576 208.456C111.177 208.812 111.136 209.443 111.498 209.847C111.86 210.252 112.485 210.287 112.89 209.925Z" fill="#FFFFFF"/>
<path d="M121.131 202.554C121.536 202.192 121.571 201.567 121.209 201.162C120.847 200.758 120.222 200.723 119.817 201.085C119.413 201.447 119.384 202.066 119.746 202.471C120.108 202.875 120.733 202.91 121.131 202.554Z" fill="#FFFFFF"/>
<path d="M129.379 195.176C129.784 194.814 129.812 194.195 129.45 193.79C129.088 193.386 128.463 193.351 128.065 193.707C127.667 194.064 127.626 194.694 127.988 195.099C128.349 195.503 128.974 195.538 129.379 195.176Z" fill="#FFFFFF"/>
<path d="M137.621 187.805C138.025 187.444 138.06 186.819 137.698 186.414C137.337 186.009 136.712 185.975 136.307 186.336C135.902 186.698 135.874 187.318 136.236 187.722C136.597 188.127 137.222 188.162 137.621 187.805Z" fill="#FFFFFF"/>
<path d="M145.869 180.428C146.274 180.065 146.309 179.442 145.946 179.037C145.583 178.631 144.96 178.596 144.555 178.959C144.149 179.322 144.114 179.945 144.477 180.351C144.84 180.756 145.463 180.791 145.869 180.428Z" fill="#FFFFFF"/>
<path d="M154.11 173.057C154.515 172.695 154.543 172.076 154.182 171.671C153.82 171.267 153.195 171.232 152.796 171.588C152.398 171.944 152.357 172.575 152.719 172.98C153.081 173.384 153.706 173.419 154.11 173.057Z" fill="#FFFFFF"/>
<path d="M162.358 165.68C162.763 165.319 162.797 164.694 162.436 164.289C162.074 163.884 161.449 163.85 161.044 164.211C160.639 164.573 160.611 165.193 160.973 165.597C161.335 166.002 161.96 166.037 162.358 165.68Z" fill="#FFFFFF"/>
<path d="M170.6 158.309C171.004 157.947 171.033 157.328 170.671 156.923C170.309 156.518 169.684 156.484 169.286 156.84C168.888 157.196 168.846 157.827 169.208 158.231C169.57 158.636 170.195 158.671 170.6 158.309Z" fill="#FFFFFF"/>
<path d="M178.842 150.937C179.246 150.575 179.281 149.95 178.919 149.546C178.557 149.141 177.932 149.106 177.528 149.468C177.123 149.83 177.094 150.45 177.456 150.854C177.818 151.259 178.443 151.294 178.842 150.937Z" fill="#FFFFFF"/>
<path d="M187.089 143.561C187.495 143.198 187.53 142.575 187.167 142.169C186.804 141.763 186.181 141.729 185.775 142.092C185.37 142.454 185.335 143.077 185.698 143.483C186.061 143.889 186.684 143.923 187.089 143.561Z" fill="#FFFFFF"/>
<path d="M195.331 136.19C195.736 135.828 195.764 135.208 195.402 134.804C195.04 134.399 194.415 134.364 194.017 134.72C193.619 135.077 193.578 135.707 193.939 136.112C194.301 136.517 194.926 136.551 195.331 136.19Z" fill="#FFFFFF"/>
<path d="M83.1545 251.354C83.5591 250.992 83.594 250.367 83.2321 249.963C82.8702 249.558 82.2452 249.523 81.8406 249.885C81.436 250.247 81.4074 250.866 81.7693 251.271C82.1311 251.676 82.7561 251.71 83.1545 251.354Z" fill="#FFFFFF"/>
<path d="M91.4082 243.983C91.8138 243.62 91.8486 242.997 91.4857 242.592C91.1229 242.186 90.4999 242.151 90.0943 242.514C89.6886 242.877 89.6539 243.5 90.0167 243.906C90.3795 244.311 91.0025 244.346 91.4082 243.983Z" fill="#FFFFFF"/>
<path d="M99.6504 236.6C100.055 236.238 100.084 235.618 99.7217 235.214C99.3598 234.809 98.7348 234.774 98.3365 235.131C97.9381 235.487 97.897 236.118 98.2589 236.522C98.6208 236.927 99.2458 236.962 99.6504 236.6Z" fill="#FFFFFF"/>
<path d="M107.892 229.229C108.297 228.867 108.332 228.242 107.97 227.837C107.608 227.432 106.983 227.398 106.578 227.76C106.174 228.121 106.145 228.741 106.507 229.145C106.869 229.55 107.494 229.585 107.892 229.229Z" fill="#FFFFFF"/>
<path d="M116.134 221.858C116.538 221.496 116.567 220.877 116.205 220.472C115.843 220.067 115.218 220.033 114.82 220.389C114.421 220.745 114.38 221.376 114.742 221.78C115.104 222.185 115.729 222.22 116.134 221.858Z" fill="#FFFFFF"/>
<path d="M124.382 214.48C124.786 214.118 124.821 213.493 124.459 213.089C124.097 212.684 123.472 212.649 123.068 213.011C122.663 213.373 122.634 213.993 122.996 214.397C123.358 214.802 123.983 214.837 124.382 214.48Z" fill="#FFFFFF"/>
<path d="M132.629 207.115C133.035 206.752 133.069 206.13 132.706 205.724C132.344 205.318 131.721 205.283 131.315 205.646C130.909 206.009 130.875 206.632 131.237 207.038C131.6 207.443 132.223 207.478 132.629 207.115Z" fill="#FFFFFF"/>
<path d="M140.871 199.733C141.276 199.371 141.304 198.751 140.942 198.347C140.581 197.942 139.956 197.907 139.557 198.263C139.159 198.62 139.118 199.25 139.48 199.655C139.841 200.06 140.466 200.094 140.871 199.733Z" fill="#FFFFFF"/>
<path d="M149.113 192.361C149.517 191.999 149.552 191.374 149.19 190.969C148.828 190.565 148.203 190.53 147.799 190.892C147.394 191.254 147.366 191.873 147.727 192.278C148.089 192.682 148.714 192.717 149.113 192.361Z" fill="#FFFFFF"/>
<path d="M157.361 184.984C157.765 184.623 157.794 184.003 157.432 183.599C157.07 183.194 156.445 183.159 156.047 183.515C155.648 183.872 155.607 184.502 155.969 184.907C156.331 185.312 156.956 185.346 157.361 184.984Z" fill="#FFFFFF"/>
<path d="M165.602 177.613C166.007 177.251 166.042 176.626 165.68 176.221C165.318 175.817 164.693 175.782 164.288 176.144C163.884 176.506 163.855 177.125 164.217 177.53C164.579 177.934 165.204 177.969 165.602 177.613Z" fill="#FFFFFF"/>
<path d="M173.856 170.243C174.261 169.88 174.296 169.257 173.933 168.852C173.57 168.446 172.947 168.411 172.542 168.774C172.136 169.137 172.101 169.76 172.464 170.165C172.827 170.571 173.45 170.606 173.856 170.243Z" fill="#FFFFFF"/>
<path d="M182.092 162.865C182.496 162.503 182.525 161.884 182.163 161.479C181.801 161.075 181.176 161.04 180.778 161.396C180.379 161.752 180.338 162.383 180.7 162.788C181.062 163.192 181.687 163.227 182.092 162.865Z" fill="#FFFFFF"/>
<path d="M190.34 155.488C190.744 155.126 190.779 154.501 190.417 154.097C190.055 153.692 189.43 153.657 189.026 154.019C188.621 154.381 188.592 155.001 188.954 155.405C189.316 155.81 189.941 155.845 190.34 155.488Z" fill="#FFFFFF"/>
<path d="M198.581 148.117C198.986 147.755 199.015 147.135 198.653 146.731C198.291 146.326 197.666 146.291 197.267 146.648C196.869 147.004 196.828 147.635 197.19 148.039C197.552 148.444 198.177 148.479 198.581 148.117Z" fill="#FFFFFF"/>
<path d="M94.6585 255.91C95.0632 255.549 95.098 254.924 94.7361 254.519C94.3742 254.114 93.7492 254.08 93.3446 254.441C92.94 254.803 92.9114 255.423 93.2733 255.827C93.6352 256.232 94.2602 256.267 94.6585 255.91Z" fill="#FFFFFF"/>
<path d="M102.9 248.539C103.305 248.177 103.333 247.558 102.972 247.153C102.61 246.748 101.985 246.714 101.586 247.07C101.188 247.426 101.147 248.057 101.509 248.461C101.871 248.866 102.496 248.901 102.9 248.539Z" fill="#FFFFFF"/>
<path d="M111.148 241.163C111.553 240.801 111.587 240.176 111.226 239.771C110.864 239.367 110.239 239.332 109.834 239.694C109.429 240.055 109.401 240.675 109.763 241.08C110.125 241.484 110.75 241.519 111.148 241.163Z" fill="#FFFFFF"/>
<path d="M119.39 233.791C119.794 233.429 119.829 232.804 119.467 232.4C119.106 231.995 118.481 231.96 118.076 232.322C117.671 232.684 117.637 233.309 117.998 233.714C118.36 234.118 118.985 234.153 119.39 233.791Z" fill="#FFFFFF"/>
<path d="M127.638 226.414C128.042 226.052 128.071 225.433 127.709 225.028C127.347 224.623 126.722 224.589 126.324 224.945C125.925 225.301 125.884 225.932 126.246 226.336C126.608 226.741 127.233 226.776 127.638 226.414Z" fill="#FFFFFF"/>
<path d="M135.879 219.043C136.284 218.681 136.319 218.056 135.957 217.651C135.595 217.247 134.97 217.212 134.565 217.574C134.161 217.936 134.132 218.555 134.494 218.96C134.856 219.364 135.481 219.399 135.879 219.043Z" fill="#FFFFFF"/>
<path d="M144.127 211.666C144.532 211.304 144.56 210.685 144.198 210.28C143.836 209.876 143.211 209.841 142.813 210.197C142.415 210.553 142.374 211.184 142.735 211.589C143.097 211.993 143.722 212.028 144.127 211.666Z" fill="#FFFFFF"/>
<path d="M152.369 204.295C152.773 203.933 152.808 203.308 152.446 202.904C152.084 202.499 151.459 202.464 151.055 202.826C150.65 203.188 150.622 203.807 150.983 204.212C151.345 204.617 151.97 204.652 152.369 204.295Z" fill="#FFFFFF"/>
<path d="M160.617 196.918C161.021 196.556 161.056 195.931 160.694 195.527C160.332 195.122 159.707 195.087 159.303 195.449C158.898 195.811 158.863 196.436 159.225 196.84C159.587 197.245 160.212 197.28 160.617 196.918Z" fill="#FFFFFF"/>
<path d="M168.858 189.546C169.263 189.184 169.292 188.565 168.93 188.16C168.568 187.755 167.943 187.721 167.544 188.077C167.146 188.433 167.105 189.064 167.467 189.468C167.829 189.873 168.454 189.908 168.858 189.546Z" fill="#FFFFFF"/>
<path d="M177.106 182.17C177.511 181.808 177.546 181.183 177.184 180.778C176.822 180.374 176.197 180.339 175.792 180.701C175.388 181.063 175.359 181.682 175.721 182.087C176.083 182.491 176.708 182.526 177.106 182.17Z" fill="#FFFFFF"/>
<path d="M185.348 174.799C185.752 174.437 185.781 173.817 185.419 173.413C185.057 173.008 184.432 172.973 184.034 173.33C183.635 173.686 183.594 174.316 183.956 174.721C184.318 175.126 184.943 175.161 185.348 174.799Z" fill="#FFFFFF"/>
<path d="M193.589 167.427C193.994 167.065 194.029 166.44 193.667 166.036C193.305 165.631 192.68 165.596 192.276 165.958C191.871 166.32 191.842 166.939 192.204 167.344C192.566 167.749 193.191 167.783 193.589 167.427Z" fill="#FFFFFF"/>
<path d="M201.837 160.05C202.242 159.689 202.277 159.064 201.915 158.659C201.553 158.254 200.928 158.219 200.523 158.581C200.119 158.943 200.084 159.568 200.446 159.973C200.808 160.377 201.433 160.412 201.837 160.05Z" fill="#FFFFFF"/>
<path d="M97.9026 267.843C98.3072 267.482 98.3421 266.857 97.9802 266.452C97.6183 266.047 96.9989 266.019 96.5943 266.381C96.1897 266.742 96.161 267.362 96.5174 267.76C96.8737 268.159 97.5042 268.2 97.9026 267.843Z" fill="#FFFFFF"/>
<path d="M106.151 260.467C106.555 260.105 106.59 259.48 106.228 259.075C105.866 258.671 105.247 258.642 104.842 259.004C104.438 259.366 104.403 259.991 104.759 260.389C105.115 260.788 105.746 260.829 106.151 260.467Z" fill="#FFFFFF"/>
<path d="M114.398 253.09C114.803 252.728 114.832 252.108 114.47 251.704C114.108 251.299 113.488 251.27 113.09 251.627C112.692 251.983 112.651 252.614 113.007 253.012C113.363 253.41 113.994 253.451 114.398 253.09Z" fill="#FFFFFF"/>
<path d="M122.64 245.718C123.045 245.356 123.08 244.731 122.718 244.326C122.356 243.922 121.736 243.893 121.332 244.255C120.927 244.617 120.899 245.236 121.255 245.635C121.611 246.033 122.242 246.074 122.64 245.718Z" fill="#FFFFFF"/>
<path d="M130.882 238.347C131.287 237.985 131.315 237.365 130.953 236.961C130.591 236.556 129.972 236.527 129.574 236.884C129.175 237.24 129.134 237.871 129.491 238.269C129.847 238.667 130.477 238.709 130.882 238.347Z" fill="#FFFFFF"/>
<path d="M139.13 230.97C139.534 230.608 139.569 229.983 139.207 229.578C138.845 229.174 138.226 229.145 137.821 229.507C137.417 229.869 137.388 230.488 137.744 230.887C138.101 231.285 138.731 231.326 139.13 230.97Z" fill="#FFFFFF"/>
<path d="M147.371 223.599C147.776 223.237 147.811 222.612 147.449 222.208C147.087 221.803 146.468 221.775 146.063 222.137C145.658 222.498 145.623 223.123 145.98 223.522C146.336 223.92 146.967 223.961 147.371 223.599Z" fill="#FFFFFF"/>
<path d="M155.619 216.222C156.024 215.86 156.052 215.241 155.69 214.836C155.329 214.432 154.709 214.403 154.311 214.759C153.912 215.116 153.871 215.746 154.228 216.145C154.584 216.543 155.214 216.584 155.619 216.222Z" fill="#FFFFFF"/>
<path d="M163.861 208.85C164.265 208.488 164.3 207.863 163.938 207.459C163.576 207.054 162.957 207.026 162.552 207.387C162.148 207.749 162.119 208.369 162.475 208.767C162.832 209.166 163.462 209.207 163.861 208.85Z" fill="#FFFFFF"/>
<path d="M172.109 201.474C172.513 201.112 172.542 200.493 172.18 200.088C171.818 199.683 171.199 199.655 170.8 200.011C170.402 200.367 170.361 200.998 170.717 201.396C171.074 201.795 171.704 201.836 172.109 201.474Z" fill="#FFFFFF"/>
<path d="M180.35 194.103C180.755 193.741 180.79 193.116 180.428 192.712C180.066 192.307 179.447 192.278 179.042 192.64C178.637 193.002 178.609 193.622 178.965 194.02C179.321 194.418 179.952 194.46 180.35 194.103Z" fill="#FFFFFF"/>
<path d="M188.598 186.726C189.003 186.364 189.038 185.739 188.676 185.334C188.314 184.929 187.694 184.901 187.29 185.263C186.885 185.625 186.85 186.25 187.207 186.648C187.563 187.046 188.194 187.087 188.598 186.726Z" fill="#FFFFFF"/>
<path d="M196.84 179.354C197.244 178.993 197.273 178.373 196.911 177.969C196.549 177.564 195.93 177.535 195.532 177.892C195.133 178.248 195.092 178.879 195.448 179.277C195.805 179.675 196.435 179.716 196.84 179.354Z" fill="#FFFFFF"/>
<path d="M109.407 272.399C109.811 272.037 109.846 271.412 109.49 271.014C109.134 270.616 108.503 270.575 108.098 270.937C107.694 271.298 107.665 271.918 108.027 272.322C108.389 272.727 109.008 272.756 109.407 272.399Z" fill="#FFFFFF"/>
<path d="M117.648 265.028C118.053 264.666 118.081 264.047 117.725 263.649C117.369 263.25 116.738 263.209 116.34 263.565C115.941 263.922 115.9 264.552 116.262 264.957C116.624 265.362 117.244 265.39 117.648 265.028Z" fill="#FFFFFF"/>
<path d="M125.896 257.652C126.301 257.29 126.336 256.665 125.979 256.266C125.623 255.868 124.992 255.827 124.588 256.189C124.183 256.551 124.155 257.17 124.516 257.575C124.878 257.979 125.498 258.008 125.896 257.652Z" fill="#FFFFFF"/>
<path d="M134.138 250.281C134.542 249.919 134.577 249.294 134.221 248.895C133.865 248.497 133.234 248.456 132.829 248.818C132.425 249.18 132.39 249.805 132.752 250.209C133.114 250.614 133.733 250.643 134.138 250.281Z" fill="#FFFFFF"/>
<path d="M142.386 242.904C142.79 242.542 142.819 241.922 142.463 241.524C142.106 241.125 141.476 241.084 141.077 241.441C140.679 241.797 140.638 242.428 141 242.832C141.362 243.237 141.981 243.265 142.386 242.904Z" fill="#FFFFFF"/>
<path d="M150.627 235.533C151.032 235.171 151.067 234.546 150.71 234.148C150.354 233.749 149.723 233.708 149.319 234.07C148.914 234.432 148.886 235.051 149.248 235.456C149.609 235.861 150.229 235.889 150.627 235.533Z" fill="#FFFFFF"/>
<path d="M158.875 228.155C159.28 227.793 159.309 227.174 158.952 226.776C158.596 226.377 157.965 226.336 157.567 226.692C157.169 227.049 157.127 227.679 157.489 228.084C157.851 228.489 158.471 228.517 158.875 228.155Z" fill="#FFFFFF"/>
<path d="M167.117 220.784C167.521 220.422 167.556 219.797 167.2 219.399C166.844 219 166.213 218.959 165.809 219.321C165.404 219.683 165.375 220.303 165.737 220.707C166.099 221.112 166.718 221.14 167.117 220.784Z" fill="#FFFFFF"/>
<path d="M175.365 213.407C175.769 213.046 175.804 212.421 175.448 212.022C175.091 211.624 174.461 211.583 174.056 211.945C173.652 212.306 173.617 212.931 173.979 213.336C174.34 213.741 174.96 213.769 175.365 213.407Z" fill="#FFFFFF"/>
<path d="M183.606 206.036C184.011 205.674 184.04 205.055 183.683 204.656C183.327 204.258 182.697 204.217 182.298 204.573C181.9 204.929 181.859 205.56 182.221 205.965C182.582 206.369 183.202 206.398 183.606 206.036Z" fill="#FFFFFF"/>
<path d="M191.854 198.659C192.259 198.297 192.294 197.672 191.937 197.274C191.581 196.875 190.951 196.834 190.546 197.196C190.141 197.558 190.113 198.178 190.475 198.582C190.836 198.987 191.456 199.015 191.854 198.659Z" fill="#FFFFFF"/>
<path d="M200.096 191.288C200.5 190.926 200.529 190.307 200.173 189.908C199.816 189.51 199.186 189.469 198.788 189.825C198.389 190.182 198.348 190.812 198.71 191.217C199.072 191.621 199.691 191.65 200.096 191.288Z" fill="#FFFFFF"/>
<path d="M112.651 284.333C113.056 283.971 113.09 283.346 112.729 282.941C112.367 282.536 111.742 282.502 111.337 282.864C110.932 283.225 110.904 283.845 111.266 284.249C111.628 284.654 112.253 284.689 112.651 284.333Z" fill="#FFFFFF"/>
<path d="M120.905 276.962C121.31 276.599 121.345 275.976 120.982 275.571C120.619 275.165 119.996 275.13 119.591 275.493C119.185 275.856 119.15 276.479 119.513 276.884C119.876 277.29 120.499 277.325 120.905 276.962Z" fill="#FFFFFF"/>
<path d="M129.147 269.579C129.551 269.217 129.58 268.597 129.218 268.193C128.856 267.788 128.231 267.753 127.833 268.11C127.434 268.466 127.393 269.097 127.755 269.501C128.117 269.906 128.742 269.941 129.147 269.579Z" fill="#FFFFFF"/>
<path d="M137.388 262.207C137.793 261.845 137.828 261.22 137.466 260.816C137.104 260.411 136.479 260.376 136.074 260.738C135.67 261.1 135.641 261.719 136.003 262.124C136.365 262.529 136.99 262.563 137.388 262.207Z" fill="#FFFFFF"/>
<path d="M145.63 254.837C146.035 254.475 146.063 253.855 145.701 253.451C145.339 253.046 144.714 253.011 144.316 253.367C143.918 253.724 143.877 254.354 144.238 254.759C144.6 255.164 145.225 255.198 145.63 254.837Z" fill="#FFFFFF"/>
<path d="M153.878 247.46C154.282 247.098 154.317 246.473 153.955 246.068C153.593 245.664 152.968 245.629 152.564 245.991C152.159 246.353 152.131 246.972 152.492 247.377C152.854 247.781 153.479 247.816 153.878 247.46Z" fill="#FFFFFF"/>
<path d="M162.125 240.094C162.531 239.731 162.566 239.109 162.203 238.703C161.84 238.297 161.217 238.262 160.811 238.625C160.406 238.988 160.371 239.611 160.734 240.017C161.097 240.422 161.72 240.457 162.125 240.094Z" fill="#FFFFFF"/>
<path d="M170.367 232.711C170.772 232.349 170.801 231.73 170.439 231.325C170.077 230.921 169.452 230.886 169.053 231.242C168.655 231.599 168.614 232.229 168.976 232.634C169.338 233.038 169.963 233.073 170.367 232.711Z" fill="#FFFFFF"/>
<path d="M178.609 225.341C179.013 224.979 179.048 224.354 178.686 223.949C178.325 223.545 177.7 223.51 177.295 223.872C176.89 224.233 176.862 224.853 177.224 225.257C177.585 225.662 178.21 225.697 178.609 225.341Z" fill="#FFFFFF"/>
<path d="M186.857 217.964C187.261 217.602 187.29 216.983 186.928 216.578C186.566 216.173 185.941 216.139 185.543 216.495C185.144 216.851 185.103 217.482 185.465 217.886C185.827 218.291 186.452 218.326 186.857 217.964Z" fill="#FFFFFF"/>
<path d="M195.098 210.592C195.503 210.23 195.538 209.605 195.176 209.201C194.814 208.796 194.189 208.761 193.784 209.123C193.38 209.485 193.351 210.105 193.713 210.509C194.075 210.914 194.7 210.949 195.098 210.592Z" fill="#FFFFFF"/>
<path d="M124.155 288.889C124.559 288.528 124.594 287.903 124.232 287.498C123.87 287.093 123.245 287.059 122.841 287.42C122.436 287.782 122.408 288.402 122.77 288.806C123.131 289.211 123.756 289.246 124.155 288.889Z" fill="#FFFFFF"/>
<path d="M132.396 281.518C132.801 281.156 132.83 280.537 132.468 280.132C132.106 279.727 131.481 279.693 131.082 280.049C130.684 280.405 130.643 281.036 131.005 281.44C131.367 281.845 131.992 281.88 132.396 281.518Z" fill="#FFFFFF"/>
<path d="M140.644 274.141C141.049 273.779 141.084 273.154 140.722 272.75C140.36 272.345 139.735 272.31 139.33 272.672C138.926 273.034 138.897 273.653 139.259 274.058C139.621 274.463 140.246 274.497 140.644 274.141Z" fill="#FFFFFF"/>
<path d="M148.886 266.77C149.292 266.407 149.326 265.784 148.964 265.378C148.601 264.972 147.978 264.938 147.572 265.301C147.166 265.663 147.132 266.286 147.494 266.692C147.857 267.098 148.48 267.132 148.886 266.77Z" fill="#FFFFFF"/>
<path d="M157.134 259.393C157.538 259.031 157.567 258.412 157.205 258.007C156.843 257.602 156.218 257.568 155.82 257.924C155.421 258.28 155.38 258.911 155.742 259.315C156.104 259.72 156.729 259.755 157.134 259.393Z" fill="#FFFFFF"/>
<path d="M165.375 252.022C165.78 251.66 165.815 251.035 165.453 250.63C165.091 250.226 164.466 250.191 164.061 250.553C163.657 250.915 163.628 251.534 163.99 251.939C164.352 252.343 164.977 252.378 165.375 252.022Z" fill="#FFFFFF"/>
<path d="M173.623 244.645C174.028 244.283 174.056 243.663 173.695 243.259C173.333 242.854 172.708 242.819 172.309 243.176C171.911 243.532 171.87 244.162 172.232 244.567C172.594 244.972 173.219 245.007 173.623 244.645Z" fill="#FFFFFF"/>
<path d="M181.865 237.274C182.27 236.912 182.304 236.287 181.943 235.882C181.581 235.478 180.956 235.443 180.551 235.805C180.146 236.167 180.118 236.786 180.48 237.191C180.842 237.595 181.467 237.63 181.865 237.274Z" fill="#FFFFFF"/>
<path d="M190.113 229.897C190.519 229.534 190.553 228.911 190.19 228.506C189.828 228.1 189.205 228.065 188.799 228.428C188.393 228.791 188.359 229.414 188.721 229.819C189.084 230.225 189.707 230.26 190.113 229.897Z" fill="#FFFFFF"/>
<path d="M198.354 222.525C198.759 222.164 198.788 221.544 198.426 221.14C198.064 220.735 197.439 220.7 197.04 221.056C196.642 221.413 196.601 222.043 196.963 222.448C197.325 222.853 197.95 222.887 198.354 222.525Z" fill="#FFFFFF"/>
<path d="M127.399 300.822C127.804 300.46 127.838 299.835 127.477 299.431C127.115 299.026 126.49 298.991 126.085 299.353C125.681 299.715 125.652 300.335 126.014 300.739C126.376 301.144 127.001 301.179 127.399 300.822Z" fill="#FFFFFF"/>
<path d="M135.647 293.445C136.052 293.083 136.087 292.458 135.725 292.054C135.363 291.649 134.738 291.614 134.333 291.976C133.929 292.338 133.894 292.963 134.256 293.368C134.617 293.772 135.242 293.807 135.647 293.445Z" fill="#FFFFFF"/>
<path d="M143.895 286.069C144.299 285.707 144.328 285.088 143.966 284.683C143.604 284.278 142.979 284.244 142.581 284.6C142.183 284.956 142.142 285.587 142.503 285.991C142.865 286.396 143.49 286.431 143.895 286.069Z" fill="#FFFFFF"/>
<path d="M152.137 278.697C152.541 278.335 152.576 277.71 152.214 277.306C151.852 276.901 151.227 276.866 150.823 277.228C150.418 277.59 150.389 278.21 150.751 278.614C151.113 279.019 151.738 279.054 152.137 278.697Z" fill="#FFFFFF"/>
<path d="M160.378 271.326C160.783 270.964 160.811 270.345 160.449 269.94C160.087 269.536 159.463 269.501 159.064 269.857C158.666 270.214 158.625 270.844 158.987 271.249C159.348 271.653 159.973 271.688 160.378 271.326Z" fill="#FFFFFF"/>
<path d="M168.626 263.949C169.031 263.587 169.066 262.962 168.704 262.558C168.342 262.153 167.717 262.118 167.312 262.48C166.908 262.842 166.879 263.462 167.241 263.866C167.603 264.271 168.228 264.306 168.626 263.949Z" fill="#FFFFFF"/>
<path d="M176.868 256.578C177.272 256.216 177.307 255.591 176.945 255.187C176.583 254.782 175.958 254.747 175.554 255.109C175.149 255.471 175.114 256.096 175.476 256.501C175.838 256.905 176.463 256.94 176.868 256.578Z" fill="#FFFFFF"/>
<path d="M185.115 249.201C185.52 248.839 185.549 248.22 185.187 247.815C184.825 247.41 184.2 247.376 183.802 247.732C183.403 248.088 183.362 248.719 183.724 249.123C184.086 249.528 184.711 249.563 185.115 249.201Z" fill="#FFFFFF"/>
<path d="M193.357 241.83C193.762 241.468 193.797 240.843 193.435 240.438C193.073 240.034 192.448 239.999 192.043 240.361C191.639 240.723 191.61 241.342 191.972 241.747C192.334 242.151 192.959 242.186 193.357 241.83Z" fill="#FFFFFF"/>
<path d="M201.605 234.453C202.01 234.091 202.038 233.472 201.676 233.067C201.315 232.663 200.69 232.628 200.291 232.984C199.893 233.34 199.852 233.971 200.214 234.376C200.575 234.78 201.2 234.815 201.605 234.453Z" fill="#FFFFFF"/>
<path d="M138.903 305.379C139.307 305.017 139.342 304.392 138.98 303.987C138.618 303.583 137.999 303.554 137.594 303.916C137.19 304.278 137.161 304.897 137.517 305.296C137.874 305.694 138.504 305.735 138.903 305.379Z" fill="#FFFFFF"/>
<path d="M147.144 298.007C147.549 297.645 147.578 297.026 147.216 296.621C146.854 296.217 146.234 296.188 145.836 296.544C145.438 296.901 145.397 297.531 145.753 297.93C146.109 298.328 146.74 298.369 147.144 298.007Z" fill="#FFFFFF"/>
<path d="M155.392 290.631C155.797 290.269 155.832 289.644 155.47 289.239C155.108 288.834 154.489 288.806 154.084 289.168C153.679 289.53 153.651 290.149 154.007 290.547C154.363 290.946 154.994 290.987 155.392 290.631Z" fill="#FFFFFF"/>
<path d="M163.634 283.259C164.039 282.897 164.074 282.272 163.712 281.868C163.35 281.463 162.73 281.434 162.326 281.796C161.921 282.158 161.886 282.783 162.243 283.181C162.599 283.58 163.229 283.621 163.634 283.259Z" fill="#FFFFFF"/>
<path d="M171.882 275.883C172.286 275.521 172.315 274.902 171.953 274.497C171.591 274.092 170.972 274.064 170.573 274.42C170.175 274.777 170.134 275.407 170.49 275.805C170.847 276.204 171.477 276.245 171.882 275.883Z" fill="#FFFFFF"/>
<path d="M180.123 268.511C180.528 268.149 180.563 267.524 180.201 267.12C179.839 266.715 179.22 266.686 178.815 267.048C178.41 267.41 178.382 268.03 178.738 268.428C179.094 268.826 179.725 268.867 180.123 268.511Z" fill="#FFFFFF"/>
<path d="M188.371 261.134C188.776 260.772 188.805 260.153 188.443 259.748C188.081 259.343 187.461 259.315 187.063 259.671C186.665 260.027 186.624 260.658 186.98 261.056C187.336 261.455 187.967 261.496 188.371 261.134Z" fill="#FFFFFF"/>
<path d="M196.613 253.763C197.018 253.401 197.053 252.776 196.691 252.372C196.329 251.967 195.709 251.938 195.305 252.3C194.9 252.662 194.871 253.282 195.228 253.68C195.584 254.078 196.215 254.119 196.613 253.763Z" fill="#FFFFFF"/>
<path d="M142.147 317.312C142.552 316.95 142.587 316.325 142.23 315.927C141.874 315.529 141.243 315.487 140.839 315.849C140.434 316.211 140.406 316.831 140.767 317.235C141.129 317.64 141.749 317.668 142.147 317.312Z" fill="#FFFFFF"/>
<path d="M150.395 309.935C150.8 309.573 150.835 308.948 150.478 308.55C150.122 308.151 149.491 308.11 149.087 308.472C148.682 308.834 148.647 309.459 149.009 309.863C149.371 310.268 149.991 310.297 150.395 309.935Z" fill="#FFFFFF"/>
<path d="M158.643 302.559C159.048 302.197 159.076 301.577 158.72 301.179C158.364 300.78 157.733 300.739 157.335 301.096C156.936 301.452 156.895 302.083 157.257 302.487C157.619 302.892 158.238 302.92 158.643 302.559Z" fill="#FFFFFF"/>
<path d="M166.885 295.187C167.289 294.825 167.324 294.2 166.968 293.802C166.611 293.403 165.981 293.362 165.576 293.724C165.172 294.086 165.143 294.705 165.505 295.11C165.867 295.515 166.486 295.543 166.885 295.187Z" fill="#FFFFFF"/>
<path d="M175.126 287.815C175.531 287.454 175.559 286.834 175.203 286.436C174.847 286.037 174.216 285.996 173.818 286.353C173.42 286.709 173.378 287.339 173.74 287.744C174.102 288.149 174.722 288.177 175.126 287.815Z" fill="#FFFFFF"/>
<path d="M183.374 280.439C183.779 280.077 183.814 279.452 183.457 279.053C183.101 278.655 182.47 278.614 182.066 278.976C181.661 279.338 181.633 279.957 181.994 280.362C182.356 280.766 182.976 280.795 183.374 280.439Z" fill="#FFFFFF"/>
<path d="M191.616 273.067C192.02 272.705 192.055 272.08 191.699 271.682C191.343 271.283 190.712 271.242 190.308 271.604C189.903 271.966 189.868 272.591 190.23 272.996C190.592 273.4 191.211 273.429 191.616 273.067Z" fill="#FFFFFF"/>
<path d="M199.864 265.691C200.268 265.329 200.297 264.71 199.94 264.311C199.584 263.913 198.954 263.872 198.555 264.228C198.157 264.584 198.116 265.215 198.478 265.62C198.84 266.024 199.459 266.053 199.864 265.691Z" fill="#FFFFFF"/>
<path d="M153.651 321.868C154.056 321.506 154.091 320.881 153.729 320.476C153.367 320.072 152.742 320.037 152.337 320.399C151.933 320.761 151.904 321.38 152.266 321.785C152.628 322.189 153.253 322.224 153.651 321.868Z" fill="#FFFFFF"/>
<path d="M161.893 314.496C162.297 314.135 162.326 313.515 161.964 313.111C161.602 312.706 160.977 312.671 160.579 313.027C160.181 313.384 160.139 314.014 160.501 314.419C160.863 314.823 161.488 314.858 161.893 314.496Z" fill="#FFFFFF"/>
<path d="M170.14 307.121C170.545 306.759 170.58 306.134 170.218 305.729C169.856 305.325 169.231 305.29 168.826 305.652C168.422 306.013 168.393 306.633 168.755 307.038C169.117 307.442 169.742 307.477 170.14 307.121Z" fill="#FFFFFF"/>
<path d="M178.382 299.749C178.788 299.386 178.822 298.763 178.46 298.358C178.097 297.952 177.474 297.917 177.068 298.28C176.662 298.643 176.628 299.266 176.991 299.672C177.353 300.077 177.976 300.112 178.382 299.749Z" fill="#FFFFFF"/>
<path d="M186.63 292.372C187.035 292.01 187.063 291.391 186.701 290.986C186.34 290.582 185.715 290.547 185.316 290.903C184.918 291.259 184.877 291.89 185.239 292.295C185.6 292.699 186.225 292.734 186.63 292.372Z" fill="#FFFFFF"/>
<path d="M194.872 285C195.276 284.638 195.311 284.013 194.949 283.609C194.587 283.204 193.962 283.169 193.558 283.531C193.153 283.893 193.125 284.513 193.486 284.917C193.848 285.322 194.473 285.357 194.872 285Z" fill="#FFFFFF"/>
<path d="M156.895 333.801C157.3 333.439 157.335 332.814 156.973 332.41C156.611 332.005 155.986 331.97 155.581 332.332C155.177 332.694 155.148 333.314 155.51 333.718C155.872 334.123 156.497 334.158 156.895 333.801Z" fill="#FFFFFF"/>
<path d="M165.149 326.43C165.554 326.068 165.589 325.445 165.226 325.039C164.863 324.633 164.24 324.599 163.835 324.961C163.429 325.324 163.394 325.947 163.757 326.353C164.12 326.759 164.743 326.793 165.149 326.43Z" fill="#FFFFFF"/>
<path d="M173.391 319.047C173.796 318.686 173.824 318.066 173.462 317.662C173.1 317.257 172.475 317.222 172.077 317.578C171.679 317.935 171.638 318.565 171.999 318.97C172.361 319.374 172.986 319.409 173.391 319.047Z" fill="#FFFFFF"/>
<path d="M181.633 311.677C182.037 311.315 182.072 310.69 181.71 310.286C181.348 309.881 180.723 309.846 180.319 310.208C179.914 310.57 179.886 311.189 180.247 311.594C180.609 311.999 181.234 312.033 181.633 311.677Z" fill="#FFFFFF"/>
<path d="M189.874 304.305C190.279 303.944 190.308 303.324 189.946 302.92C189.584 302.515 188.959 302.48 188.56 302.836C188.162 303.193 188.121 303.823 188.483 304.228C188.845 304.633 189.47 304.667 189.874 304.305Z" fill="#FFFFFF"/>
<path d="M198.122 296.928C198.527 296.566 198.562 295.941 198.2 295.536C197.838 295.131 197.213 295.097 196.808 295.458C196.404 295.82 196.375 296.44 196.737 296.844C197.099 297.249 197.724 297.284 198.122 296.928Z" fill="#FFFFFF"/>
</svg>
